<svg width="47" height="58" viewBox="0 0 47 58" fill="none" xmlns="http://www.w3.org/2000/svg">
<path d="M35.004 0.0290253C34.881 -0.108724 30.4522 0.0833999 26.5982 4.2775C22.7442 8.46798 23.3371 13.2747 23.4239 13.398C23.5106 13.5212 28.9193 13.7133 32.372 8.83773C35.8247 3.96213 35.1269 0.1704 35.004 0.0290253ZM46.9854 42.5609C46.8118 42.2129 38.5796 38.0877 39.3461 30.1562C40.1125 22.2212 45.4018 20.0462 45.485 19.8106C45.5682 19.5749 43.3266 16.9468 40.9513 15.6164C39.2073 14.6785 37.2771 14.1411 35.3004 14.0432C34.91 14.0323 33.5542 13.6988 30.7667 14.4637C28.9301 14.9676 24.7905 16.5988 23.6516 16.6641C22.5092 16.7293 19.1107 14.7718 15.4555 14.2535C13.1164 13.8003 10.6362 14.7283 8.86106 15.4424C7.08952 16.1529 3.71997 18.1757 1.36274 23.5515C-0.994502 28.9238 0.238348 37.4352 1.1205 40.0814C2.00266 42.7241 3.38012 47.0559 5.7229 50.2169C7.80537 53.7839 10.5675 56.2597 11.7208 57.1007C12.8741 57.9417 16.128 58.5 18.384 57.3436C20.1989 56.2271 23.4745 55.5855 24.7688 55.6326C26.0595 55.6797 28.6047 56.1909 31.2114 57.5865C33.2758 58.3006 35.2281 58.0034 37.1841 57.2059C39.14 56.4047 41.9708 53.367 45.2753 47.2082C46.5298 44.3444 47.1011 42.7966 46.9854 42.5609Z" fill="white"/>
<path d="M35.004 0.0290253C34.881 -0.108724 30.4522 0.0833999 26.5982 4.2775C22.7442 8.46798 23.3371 13.2747 23.4239 13.398C23.5106 13.5212 28.9193 13.7133 32.372 8.83773C35.8247 3.96213 35.1269 0.1704 35.004 0.0290253ZM46.9854 42.5609C46.8118 42.2129 38.5796 38.0877 39.3461 30.1562C40.1125 22.2212 45.4018 20.0462 45.485 19.8106C45.5682 19.5749 43.3266 16.9468 40.9513 15.6164C39.2073 14.6785 37.2771 14.1411 35.3004 14.0432C34.91 14.0323 33.5542 13.6988 30.7667 14.4637C28.9301 14.9676 24.7905 16.5988 23.6516 16.6641C22.5092 16.7293 19.1107 14.7718 15.4555 14.2535C13.1164 13.8003 10.6362 14.7283 8.86106 15.4424C7.08952 16.1529 3.71997 18.1757 1.36274 23.5515C-0.994502 28.9238 0.238348 37.4352 1.1205 40.0814C2.00266 42.7241 3.38012 47.0559 5.7229 50.2169C7.80537 53.7839 10.5675 56.2597 11.7208 57.1007C12.8741 57.9417 16.128 58.5 18.384 57.3436C20.1989 56.2271 23.4745 55.5855 24.7688 55.6326C26.0595 55.6797 28.6047 56.1909 31.2114 57.5865C33.2758 58.3006 35.2281 58.0034 37.1841 57.2059C39.14 56.4047 41.9708 53.367 45.2753 47.2082C46.5298 44.3444 47.1011 42.7966 46.9854 42.5609Z" fill="white"/>
</svg>
