<svg width="12" height="14" viewBox="0 0 12 14" fill="none" xmlns="http://www.w3.org/2000/svg">
<path fill-rule="evenodd" clip-rule="evenodd" d="M7.35392 0.646009C7.40048 0.692455 7.43742 0.74763 7.46263 0.808375C7.48784 0.86912 7.50081 0.934241 7.50081 1.00001C7.50081 1.06578 7.48784 1.1309 7.46263 1.19164C7.43742 1.25239 7.40048 1.30756 7.35392 1.35401L1.70692 7.00001L7.35392 12.646C7.4478 12.7399 7.50055 12.8672 7.50055 13C7.50055 13.1328 7.4478 13.2601 7.35392 13.354C7.26003 13.4479 7.13269 13.5006 6.99992 13.5006C6.86714 13.5006 6.7398 13.4479 6.64592 13.354L0.645917 7.35401C0.599354 7.30756 0.562411 7.25239 0.537205 7.19164C0.511998 7.1309 0.499023 7.06578 0.499023 7.00001C0.499023 6.93424 0.511998 6.86912 0.537205 6.80837C0.562411 6.74763 0.599354 6.69245 0.645917 6.64601L6.64592 0.646009C6.69236 0.599446 6.74754 0.562503 6.80828 0.537296C6.86903 0.51209 6.93415 0.499115 6.99992 0.499115C7.06568 0.499115 7.1308 0.51209 7.19155 0.537296C7.25229 0.562503 7.30747 0.599446 7.35392 0.646009Z" fill="white"/>
<path fill-rule="evenodd" clip-rule="evenodd" d="M11.3539 0.646009C11.4005 0.692455 11.4374 0.74763 11.4626 0.808375C11.4878 0.86912 11.5008 0.934241 11.5008 1.00001C11.5008 1.06578 11.4878 1.1309 11.4626 1.19164C11.4374 1.25239 11.4005 1.30756 11.3539 1.35401L5.70692 7.00001L11.3539 12.646C11.4004 12.6925 11.4373 12.7477 11.4624 12.8084C11.4876 12.8692 11.5005 12.9343 11.5005 13C11.5005 13.0658 11.4876 13.1309 11.4624 13.1916C11.4373 13.2523 11.4004 13.3075 11.3539 13.354C11.3074 13.4005 11.2522 13.4374 11.1915 13.4625C11.1308 13.4877 11.0657 13.5006 10.9999 13.5006C10.9342 13.5006 10.8691 13.4877 10.8083 13.4625C10.7476 13.4374 10.6924 13.4005 10.6459 13.354L4.64592 7.35401C4.59935 7.30756 4.56241 7.25239 4.5372 7.19164C4.512 7.1309 4.49902 7.06578 4.49902 7.00001C4.49902 6.93424 4.512 6.86912 4.5372 6.80837C4.56241 6.74763 4.59935 6.69245 4.64592 6.64601L10.6459 0.646009C10.6924 0.599446 10.7475 0.562503 10.8083 0.537296C10.869 0.51209 10.9341 0.499115 10.9999 0.499115C11.0657 0.499115 11.1308 0.51209 11.1915 0.537296C11.2523 0.562503 11.3075 0.599446 11.3539 0.646009Z" fill="white"/>
</svg>
