<svg width="53" height="40" viewBox="0 0 53 40" fill="none" xmlns="http://www.w3.org/2000/svg">
<path d="M52.9898 36.7013C52.9545 36.736 52.9266 36.7775 52.9079 36.8231C52.3397 38.9292 50.9371 40 48.7412 40H13.0942C10.1305 40 7.16157 40 4.19782 40C1.68963 40 0.010682 38.3354 0.00556329 35.8538C0.00556329 33.2217 0.00556329 30.5878 0.00556329 27.9523C-0.0191101 27.7186 0.0387826 27.4836 0.169363 27.2875C0.26576 27.1887 0.382245 27.1114 0.511092 27.0606C0.63994 27.0099 0.778203 26.9869 0.9167 26.9932C1.15728 27.0591 1.36715 27.3585 1.52583 27.592C1.60773 27.7138 1.52583 27.9269 1.52583 28.0995V35.8437C1.52583 37.4829 2.50863 38.4623 4.16199 38.4623H48.7617C50.415 38.4623 51.403 37.4829 51.403 35.8488C51.403 27.4888 51.403 19.1288 51.403 10.7688V10.2614H43.8733C43.3204 10.2614 42.9928 10.0076 42.9519 9.57118C42.9109 9.13474 43.2795 8.72875 43.8886 8.72875C45.6341 8.72875 47.3745 8.72875 49.1149 8.72875H51.4234V5.52144C51.4234 4.97336 51.4234 4.42527 51.4234 3.87719C51.418 3.25391 51.1652 2.65783 50.7197 2.21805C50.2742 1.77826 49.6719 1.53017 49.0432 1.52753C48.1628 1.52753 47.2875 1.52753 46.407 1.52753H6.37841C6.13789 1.53775 5.89704 1.51728 5.66178 1.46663C5.48921 1.43211 5.33643 1.33358 5.23464 1.19117C5.13286 1.04876 5.08973 0.873195 5.11407 0.700329C5.11788 0.517513 5.19214 0.343079 5.3216 0.212841C5.45106 0.082603 5.6259 0.00644519 5.81023 0C5.99962 0 6.18901 0 6.37841 0H48.5979C50.973 0 52.2731 0.964222 52.9335 3.22253C52.9335 3.25298 52.9744 3.27328 53 3.29866L52.9898 36.7013Z" fill="white"/>
<path d="M1.55654 8.69746H39.5786C39.7856 8.68442 39.9934 8.69463 40.198 8.72791C40.2929 8.74156 40.3842 8.77369 40.4666 8.82248C40.5489 8.87126 40.6207 8.93572 40.6778 9.01215C40.7349 9.08858 40.7762 9.17546 40.7993 9.26777C40.8223 9.36009 40.8267 9.45602 40.8122 9.55004C40.8082 9.73266 40.7318 9.90638 40.5997 10.0336C40.4675 10.1609 40.2901 10.2315 40.1058 10.2301C39.9165 10.2301 39.7271 10.2301 39.5377 10.2301H1.55654V23.4805C1.57194 23.6493 1.57194 23.8192 1.55654 23.988C1.54218 24.1706 1.45775 24.3408 1.32062 24.4635C1.1835 24.5863 1.00412 24.6522 0.819439 24.6477C0.6263 24.6618 0.435336 24.5999 0.287827 24.4755C0.140317 24.3511 0.0481133 24.1742 0.0311509 23.9829C0.0208664 23.8461 0.0208664 23.7087 0.0311509 23.5719C0.0311509 17.076 0.0311509 10.5802 0.0311509 4.08442C0.00927039 3.51049 0.111712 2.93858 0.331574 2.40721C0.551435 1.87583 0.883608 1.39735 1.30572 1.00399C1.3724 0.914082 1.45784 0.839485 1.55622 0.785275C1.65461 0.731065 1.76362 0.698516 1.87584 0.689847C1.98805 0.681177 2.10084 0.696592 2.2065 0.735038C2.31217 0.773485 2.40823 0.83406 2.48815 0.912638C2.56979 0.990109 2.63305 1.0846 2.67335 1.18928C2.71364 1.29396 2.72998 1.4062 2.72116 1.5179C2.71234 1.6296 2.67859 1.73796 2.62236 1.83515C2.56613 1.93234 2.48882 2.01592 2.39601 2.07986C2.12338 2.34198 1.90987 2.65843 1.76959 3.00833C1.6293 3.35823 1.56541 3.73363 1.58213 4.1098C1.57189 5.61195 1.55654 7.13441 1.55654 8.69746Z" fill="white"/>
<path d="M16.4316 19.7711L20.4498 24.5871C20.5525 24.702 20.6465 24.8241 20.7313 24.9525C20.7882 25.0294 20.8292 25.1167 20.852 25.2094C20.8748 25.3021 20.879 25.3983 20.8643 25.4926C20.8495 25.5869 20.8162 25.6773 20.7661 25.7588C20.7161 25.8403 20.6504 25.9112 20.5727 25.9675C20.5023 26.0322 20.4193 26.082 20.3288 26.1139C20.2384 26.1458 20.1423 26.159 20.0465 26.1528C19.9507 26.1467 19.8571 26.1212 19.7716 26.078C19.686 26.0348 19.6103 25.9747 19.5489 25.9015C19.2674 25.6224 19.037 25.3077 18.776 25.0032C17.5168 23.4909 16.2558 21.9769 14.9932 20.4612C14.5325 19.9081 14.5325 19.6391 14.9932 19.0758C16.464 17.3098 17.9348 15.5454 19.4056 13.7827C19.4643 13.6881 19.5427 13.607 19.6356 13.5449C19.7284 13.4827 19.8335 13.4408 19.944 13.4221C20.0544 13.4033 20.1676 13.4082 20.276 13.4362C20.3844 13.4643 20.4855 13.515 20.5727 13.5848C20.6561 13.6595 20.7227 13.7507 20.7684 13.8526C20.814 13.9544 20.8376 14.0646 20.8376 14.176C20.8376 14.2875 20.814 14.3977 20.7684 14.4995C20.7227 14.6013 20.6561 14.6925 20.5727 14.7672L20.4754 14.884L16.8923 19.1874L16.4316 19.7711Z" fill="white"/>
<path d="M36.5788 19.7716C35.2275 18.1426 33.912 16.5643 32.5965 14.9861C32.4992 14.8693 32.3917 14.7526 32.3047 14.6257C32.2438 14.5479 32.199 14.4589 32.173 14.3639C32.147 14.2688 32.1402 14.1696 32.153 14.072C32.1659 13.9743 32.1981 13.8801 32.2479 13.7949C32.2976 13.7096 32.3639 13.635 32.4429 13.5753C32.5881 13.4516 32.7761 13.3889 32.9672 13.4002C33.1583 13.4116 33.3374 13.4962 33.4666 13.6361C33.5518 13.7217 33.6305 13.8133 33.7021 13.9102L37.9507 18.985C38.4984 19.6397 38.4984 19.8681 37.9507 20.538C36.5277 22.2499 35.1012 23.9584 33.6714 25.6636C33.2568 26.171 32.8114 26.2573 32.4327 25.9427C32.0539 25.628 32.0692 25.1713 32.4787 24.6841C33.8301 23.0652 35.1917 21.4362 36.5788 19.7716Z" fill="white"/>
<path d="M29.9244 14.2406C29.8752 14.396 29.8171 14.5485 29.7504 14.6974L24.6317 25.4764C24.3552 26.0549 23.9406 26.2579 23.5004 26.0447C23.0602 25.8316 22.9476 25.4104 23.2086 24.8572L28.3888 13.997C28.5833 13.5809 28.87 13.317 29.3563 13.4337C29.5331 13.4779 29.6878 13.5839 29.7922 13.7321C29.8966 13.8803 29.9435 14.0609 29.9244 14.2406Z" fill="white"/>
<path d="M36.5793 34.28C37.8385 34.28 39.0926 34.28 40.3518 34.28C41.0224 34.28 41.4421 34.7875 41.1759 35.295C41.1048 35.4242 41.0061 35.5365 40.8868 35.6242C40.7674 35.7118 40.6303 35.7726 40.4849 35.8025C37.9255 35.838 35.3662 35.8279 32.8068 35.8025C32.7008 35.8124 32.5938 35.8002 32.4929 35.7667C32.3919 35.7331 32.2991 35.679 32.2205 35.6078C32.1419 35.5366 32.0792 35.4498 32.0365 35.3531C31.9938 35.2564 31.9719 35.1519 31.9724 35.0463C31.9743 34.943 31.9972 34.8412 32.0398 34.7469C32.0825 34.6526 32.1439 34.5678 32.2204 34.4976C32.2969 34.4275 32.3869 34.3734 32.485 34.3386C32.5832 34.3038 32.6874 34.2891 32.7914 34.2953C34.0506 34.2953 35.3047 34.2953 36.5639 34.2953L36.5793 34.28Z" fill="white"/>
<path d="M32.0902 32.0877C30.9026 32.0877 29.7151 32.0877 28.5071 32.0877C27.903 32.0877 27.5498 31.7985 27.5447 31.3265C27.5396 30.8545 27.9082 30.5551 28.5019 30.55H35.6682C36.2568 30.55 36.6152 30.8647 36.5998 31.3417C36.5844 31.8188 36.2364 32.0776 35.6733 32.0827C34.5011 32.0928 33.2931 32.0877 32.0902 32.0877Z" fill="white"/>
<path d="M15.8535 30.55H18.4129C19.0169 30.55 19.365 30.8393 19.3701 31.3163C19.3752 31.7934 19.0322 32.0877 18.4282 32.0877C16.722 32.0877 15.0021 32.0877 13.2685 32.0877C12.6696 32.0877 12.3113 31.7985 12.3062 31.3316C12.3011 30.8647 12.6594 30.5551 13.2532 30.55H15.8535Z" fill="white"/>
<path d="M20.3375 35.8185C19.5492 35.8185 18.7558 35.8185 17.9624 35.8185C17.3788 35.8185 17.0461 35.5343 17.0308 35.0776C17.0154 34.6208 17.3635 34.291 17.9624 34.2859C19.585 34.2859 21.2025 34.2859 22.8252 34.2859C23.4241 34.2859 23.7722 34.6005 23.7517 35.0776C23.7312 35.5546 23.4036 35.8083 22.8201 35.8185C21.9959 35.8286 21.1667 35.8185 20.3375 35.8185Z" fill="white"/>
<path d="M7.91378 32.0876C7.36095 32.0876 6.80812 32.0876 6.26042 32.0876C6.15214 32.1 6.04244 32.0896 5.93852 32.057C5.8346 32.0244 5.7388 31.9704 5.65742 31.8985C5.57604 31.8266 5.51092 31.7385 5.46633 31.6399C5.42173 31.5413 5.39868 31.4344 5.39868 31.3264C5.39868 31.2183 5.42173 31.1115 5.46633 31.0129C5.51092 30.9142 5.57604 30.8261 5.65742 30.7542C5.7388 30.6823 5.8346 30.6283 5.93852 30.5957C6.04244 30.5631 6.15214 30.5527 6.26042 30.5651C7.38142 30.5651 8.50243 30.5651 9.62344 30.5651C9.73182 30.5564 9.84084 30.5704 9.94338 30.6063C10.0459 30.6422 10.1397 30.6991 10.2185 30.7734C10.2973 30.8476 10.3595 30.9375 10.4009 31.0372C10.4423 31.1369 10.462 31.2441 10.4587 31.3519C10.4555 31.4597 10.4293 31.5655 10.382 31.6626C10.3346 31.7596 10.2671 31.8457 10.184 31.9151C10.1008 31.9845 10.0038 32.0358 9.89923 32.0655C9.7947 32.0952 9.68503 32.1028 9.57737 32.0876C9.00407 32.0977 8.45125 32.0876 7.91378 32.0876Z" fill="white"/>
<path d="M12.5722 35.8177C12.0604 35.8177 11.5024 35.8177 10.9701 35.8177C10.4377 35.8177 10.1204 35.5183 10.1204 35.0565C10.1164 34.9488 10.1363 34.8416 10.1784 34.7423C10.2206 34.643 10.2841 34.554 10.3645 34.4816C10.4449 34.4091 10.5403 34.3549 10.644 34.3227C10.7477 34.2905 10.8572 34.2812 10.965 34.2953C12.0706 34.275 13.1728 34.275 14.2717 34.2953C14.4753 34.2953 14.6706 34.3755 14.8146 34.5182C14.9586 34.661 15.0395 34.8546 15.0395 35.0565C15.0395 35.2584 14.9586 35.452 14.8146 35.5947C14.6706 35.7375 14.4753 35.8177 14.2717 35.8177C13.7086 35.8279 13.1404 35.8177 12.5722 35.8177Z" fill="white"/>
<path d="M15.4235 3.66969C15.7075 3.6687 15.9855 3.75112 16.2224 3.90654C16.4592 4.06196 16.6444 4.28343 16.7545 4.54302C16.8646 4.80262 16.8947 5.08872 16.841 5.36525C16.7873 5.64178 16.6522 5.89636 16.4528 6.09689C16.2534 6.29743 15.9985 6.43493 15.7204 6.49208C15.4423 6.54922 15.1533 6.52345 14.8899 6.418C14.6265 6.31255 14.4006 6.13214 14.2404 5.89954C14.0803 5.66693 13.9933 5.39254 13.9902 5.11095C13.9889 4.73179 14.1388 4.36748 14.4073 4.09748C14.6758 3.82748 15.0411 3.6737 15.4235 3.66969Z" fill="white"/>
<path d="M6.59886 3.66952C6.88507 3.66963 7.16473 3.75439 7.40207 3.91296C7.63941 4.07152 7.82365 4.29668 7.93121 4.55963C8.03877 4.82257 8.06476 5.11136 8.00586 5.38903C7.94696 5.6667 7.80585 5.92064 7.60057 6.11837C7.39529 6.31609 7.13519 6.4486 6.85353 6.49895C6.57187 6.54931 6.28146 6.51521 6.01946 6.40102C5.75745 6.28684 5.53576 6.09776 5.38275 5.85797C5.22973 5.61818 5.15235 5.33859 5.1605 5.05496C5.16723 4.68255 5.32223 4.32789 5.59169 4.06835C5.86115 3.80881 6.2232 3.66544 6.59886 3.66952Z" fill="white"/>
<path d="M12.4293 5.1048C12.4302 5.38591 12.3468 5.66095 12.1896 5.89487C12.0323 6.1288 11.8084 6.31104 11.5464 6.41836C11.2843 6.52569 10.996 6.55324 10.718 6.49752C10.4401 6.44179 10.1852 6.30532 9.98582 6.10547C9.78642 5.90562 9.65154 5.65144 9.59835 5.37532C9.54516 5.09921 9.57608 4.81364 9.68717 4.555C9.79826 4.29637 9.98449 4.07637 10.2221 3.92303C10.4598 3.76969 10.7381 3.68996 11.0216 3.69399C11.3951 3.70188 11.7508 3.85352 12.0135 4.11683C12.2763 4.38014 12.4253 4.73445 12.4293 5.1048Z" fill="white"/>
<path d="M45.1783 35.8123C44.7995 35.8123 44.4207 35.8123 44.042 35.8123C43.8419 35.8178 43.6477 35.7446 43.502 35.6086C43.3562 35.4726 43.2706 35.285 43.2639 35.0866C43.2574 34.9834 43.2728 34.8799 43.309 34.7829C43.3453 34.6859 43.4017 34.5976 43.4745 34.5235C43.5473 34.4494 43.6349 34.3912 43.7318 34.3527C43.8287 34.3142 43.9326 34.2963 44.0368 34.3C44.8098 34.2747 45.5725 34.2747 46.3607 34.3C46.465 34.2956 46.569 34.3129 46.6661 34.3507C46.7632 34.3886 46.8512 34.4462 46.9245 34.5198C46.9978 34.5934 47.0547 34.6814 47.0916 34.7782C47.1285 34.8749 47.1446 34.9783 47.1388 35.0816C47.1321 35.2799 47.0476 35.4678 46.9032 35.6053C46.7588 35.7427 46.566 35.8189 46.3659 35.8174H45.1783V35.8123Z" fill="white"/>
<path d="M27.877 35.8125C27.4829 35.8125 27.0836 35.8125 26.6894 35.8125C26.4858 35.8125 26.2905 35.7323 26.1465 35.5895C26.0025 35.4468 25.9216 35.2531 25.9216 35.0513C25.9216 34.8494 26.0025 34.6557 26.1465 34.513C26.2905 34.3702 26.4858 34.29 26.6894 34.29C27.4777 34.2647 28.2711 34.2647 29.0594 34.29C29.1611 34.2841 29.263 34.2996 29.3582 34.3356C29.4534 34.3715 29.5399 34.427 29.612 34.4984C29.684 34.5698 29.74 34.6556 29.7762 34.75C29.8124 34.8444 29.8281 34.9453 29.8221 35.0462C29.8263 35.1447 29.8103 35.243 29.7751 35.3352C29.7399 35.4274 29.6863 35.5116 29.6174 35.5827C29.5485 35.6538 29.4659 35.7104 29.3744 35.749C29.2829 35.7876 29.1845 35.8075 29.085 35.8074H27.877V35.8125Z" fill="white"/>
<path d="M23.4804 32.0884C23.1067 32.0884 22.7279 32.0884 22.3491 32.0884C22.1455 32.0884 21.9502 32.0082 21.8062 31.8654C21.6622 31.7227 21.5813 31.529 21.5813 31.3271C21.5813 31.1253 21.6622 30.9316 21.8062 30.7889C21.9502 30.6461 22.1455 30.5659 22.3491 30.5659C23.1016 30.5659 23.8591 30.5659 24.6167 30.5659C24.7203 30.5622 24.8236 30.58 24.9198 30.6182C25.016 30.6564 25.1031 30.7142 25.1755 30.7879C25.2478 30.8615 25.3038 30.9493 25.3398 31.0457C25.3758 31.1421 25.391 31.2449 25.3845 31.3475C25.3848 31.4503 25.3637 31.5521 25.3224 31.6464C25.2811 31.7408 25.2206 31.8257 25.1446 31.8957C25.0687 31.9658 24.9789 32.0195 24.881 32.0535C24.7831 32.0876 24.6792 32.1011 24.5758 32.0934C24.2021 32.0985 23.8438 32.0884 23.4804 32.0884Z" fill="white"/>
</svg>
