<svg width="18" height="16" viewBox="0 0 18 16" fill="none" xmlns="http://www.w3.org/2000/svg">
<path fill-rule="evenodd" clip-rule="evenodd" d="M9 14.4C9 14.1879 9.0862 13.9844 9.23964 13.8344C9.39308 13.6843 9.60119 13.6 9.81818 13.6H17.1818C17.3988 13.6 17.6069 13.6843 17.7604 13.8344C17.9138 13.9844 18 14.1879 18 14.4C18 14.6122 17.9138 14.8157 17.7604 14.9657C17.6069 15.1158 17.3988 15.2 17.1818 15.2H9.81818C9.60119 15.2 9.39308 15.1158 9.23964 14.9657C9.0862 14.8157 9 14.6122 9 14.4ZM5 8.00005C5 7.78788 5.0862 7.58439 5.23964 7.43436C5.39308 7.28433 5.60119 7.20005 5.81818 7.20005H17.1818C17.3988 7.20005 17.6069 7.28433 17.7604 7.43436C17.9138 7.58439 18 7.78788 18 8.00005C18 8.21222 17.9138 8.41571 17.7604 8.56573C17.6069 8.71576 17.3988 8.80005 17.1818 8.80005H5.81818C5.60119 8.80005 5.39308 8.71576 5.23964 8.56573C5.0862 8.41571 5 8.21222 5 8.00005ZM0 1.60005C0 1.38788 0.0862012 1.18439 0.23964 1.03436C0.393079 0.884334 0.601186 0.800049 0.818182 0.800049H17.1818C17.3988 0.800049 17.6069 0.884334 17.7604 1.03436C17.9138 1.18439 18 1.38788 18 1.60005C18 1.81222 17.9138 2.0157 17.7604 2.16573C17.6069 2.31576 17.3988 2.40005 17.1818 2.40005H0.818182C0.601186 2.40005 0.393079 2.31576 0.23964 2.16573C0.0862012 2.0157 0 1.81222 0 1.60005Z" fill="white"/>
</svg>
