<svg width="20" height="16" viewBox="0 0 20 16" fill="none" xmlns="http://www.w3.org/2000/svg">
<path fill-rule="evenodd" clip-rule="evenodd" d="M0 15.1111C0 14.8754 0.0957791 14.6493 0.266267 14.4826C0.436754 14.3159 0.667985 14.2222 0.909091 14.2222H19.0909C19.332 14.2222 19.5632 14.3159 19.7337 14.4826C19.9042 14.6493 20 14.8754 20 15.1111C20 15.3469 19.9042 15.573 19.7337 15.7397C19.5632 15.9064 19.332 16 19.0909 16H0.909091C0.667985 16 0.436754 15.9064 0.266267 15.7397C0.0957791 15.573 0 15.3469 0 15.1111ZM0 8C0 7.76425 0.0957791 7.53816 0.266267 7.37146C0.436754 7.20476 0.667985 7.11111 0.909091 7.11111H19.0909C19.332 7.11111 19.5632 7.20476 19.7337 7.37146C19.9042 7.53816 20 7.76425 20 8C20 8.23575 19.9042 8.46184 19.7337 8.62854C19.5632 8.79524 19.332 8.88889 19.0909 8.88889H0.909091C0.667985 8.88889 0.436754 8.79524 0.266267 8.62854C0.0957791 8.46184 0 8.23575 0 8ZM0 0.888889C0 0.653141 0.0957791 0.427049 0.266267 0.26035C0.436754 0.0936507 0.667985 0 0.909091 0H19.0909C19.332 0 19.5632 0.0936507 19.7337 0.26035C19.9042 0.427049 20 0.653141 20 0.888889C20 1.12464 19.9042 1.35073 19.7337 1.51743C19.5632 1.68413 19.332 1.77778 19.0909 1.77778H0.909091C0.667985 1.77778 0.436754 1.68413 0.266267 1.51743C0.0957791 1.35073 0 1.12464 0 0.888889Z" fill="white"/>
</svg>
