<svg width="16" height="16" viewBox="0 0 16 16" fill="none" xmlns="http://www.w3.org/2000/svg">
<path d="M14 1.04624C14.2652 1.04624 14.5196 1.15647 14.7071 1.35267C14.8946 1.54888 15 1.815 15 2.09248V9.46238C15 9.73986 14.8946 10.006 14.7071 10.2022C14.5196 10.3984 14.2652 10.5086 14 10.5086H4.414C3.88361 10.5087 3.37499 10.7293 3 11.1217L1 14.2142V2.09248C1 1.815 1.10536 1.54888 1.29289 1.35267C1.48043 1.15647 1.73478 1.04624 2 1.04624H14ZM2 0C1.46957 0 0.960859 0.220457 0.585786 0.612872C0.210714 1.00529 0 1.53752 0 2.09248L0 15.477C2.10149e-05 15.5805 0.0293926 15.6817 0.0843973 15.7677C0.139402 15.8538 0.217567 15.9208 0.308999 15.9603C0.400432 15.9999 0.501021 16.0101 0.598036 15.9898C0.695051 15.9696 0.784131 15.9196 0.854 15.8463L3.707 11.8614C3.89449 11.6652 4.14881 11.5549 4.414 11.5549H14C14.5304 11.5549 15.0391 11.3344 15.4142 10.942C15.7893 10.5496 16 10.0173 16 9.46238V2.09248C16 1.53752 15.7893 1.00529 15.4142 0.612872C15.0391 0.220457 14.5304 0 14 0L2 0Z" fill="white"/>
<path d="M5 6C5 6.26522 4.89464 6.51957 4.70711 6.70711C4.51957 6.89464 4.26522 7 4 7C3.73478 7 3.48043 6.89464 3.29289 6.70711C3.10536 6.51957 3 6.26522 3 6C3 5.73478 3.10536 5.48043 3.29289 5.29289C3.48043 5.10536 3.73478 5 4 5C4.26522 5 4.51957 5.10536 4.70711 5.29289C4.89464 5.48043 5 5.73478 5 6ZM9 6C9 6.26522 8.89464 6.51957 8.70711 6.70711C8.51957 6.89464 8.26522 7 8 7C7.73478 7 7.48043 6.89464 7.29289 6.70711C7.10536 6.51957 7 6.26522 7 6C7 5.73478 7.10536 5.48043 7.29289 5.29289C7.48043 5.10536 7.73478 5 8 5C8.26522 5 8.51957 5.10536 8.70711 5.29289C8.89464 5.48043 9 5.73478 9 6ZM13 6C13 6.26522 12.8946 6.51957 12.7071 6.70711C12.5196 6.89464 12.2652 7 12 7C11.7348 7 11.4804 6.89464 11.2929 6.70711C11.1054 6.51957 11 6.26522 11 6C11 5.73478 11.1054 5.48043 11.2929 5.29289C11.4804 5.10536 11.7348 5 12 5C12.2652 5 12.5196 5.10536 12.7071 5.29289C12.8946 5.48043 13 5.73478 13 6Z" fill="white"/>
</svg>
