<svg width="50" height="40" viewBox="0 0 50 40" fill="none" xmlns="http://www.w3.org/2000/svg">
<path d="M50 36.2857C49.7661 36.9869 49.4664 37.6645 49.1049 38.3095C48.7505 38.8294 48.2745 39.2551 47.7179 39.5497C47.1614 39.8443 46.5413 39.9989 45.9114 40C45.7614 40 45.6162 40 45.4711 40H4.5173C2.35445 40 0.689979 38.807 0.162573 36.8653C0.0583435 36.4564 0.00471834 36.0363 0.00289905 35.6143C0.00289905 25.2073 0.00289905 14.7969 0.00289905 4.38342C-0.0185459 3.80524 0.0791667 3.22882 0.28998 2.68988C0.500793 2.15093 0.820217 1.66093 1.22847 1.25023C1.63672 0.839532 2.12509 0.516887 2.66335 0.302278C3.2016 0.0876692 3.77827 -0.0143324 4.35763 0.00259452C18.1024 0.00259452 31.8505 0.00259452 45.6017 0.00259452C46.6206 -0.0331273 47.6178 0.30102 48.4088 0.943117C49.1997 1.58521 49.7306 2.49173 49.9032 3.4947C49.9248 3.57236 49.9523 3.64826 49.9855 3.72171L50 36.2857ZM1.5077 9.31004V9.84618C1.5077 18.3728 1.5077 26.9058 1.5077 35.4453C1.5077 37.4159 2.62058 38.5268 4.58988 38.5268H45.3888C47.3243 38.5268 48.4517 37.4159 48.4517 35.4791C48.4517 26.9396 48.4517 18.3985 48.4517 9.85584C48.4517 9.68196 48.4517 9.51291 48.4275 9.33419L1.5077 9.31004ZM48.4033 7.75961C48.4223 7.69796 48.4369 7.635 48.4468 7.57124C48.4468 6.48449 48.4468 5.39773 48.4468 4.31098C48.4572 3.93531 48.3898 3.56154 48.2488 3.2131C48.1078 2.86465 47.8962 2.54903 47.6273 2.28603C47.3583 2.02303 47.0379 1.81831 46.686 1.6847C46.3341 1.55108 45.9584 1.49146 45.5824 1.50956C31.8505 1.50956 18.1202 1.50956 4.3915 1.50956C4.01169 1.49056 3.63208 1.55059 3.27675 1.68584C2.92142 1.82108 2.59814 2.02859 2.32743 2.29519C2.05671 2.56179 1.84448 2.88166 1.7042 3.2345C1.56391 3.58733 1.49865 3.96543 1.51254 4.34479C1.51254 5.36875 1.51254 6.39272 1.51254 7.41668C1.5208 7.53196 1.53697 7.64654 1.56092 7.75961H48.4033Z" fill="white"/>
<path d="M36.5779 22.689V32.2379C36.5779 33.1508 36.365 33.3681 35.465 33.3681H32.5377C31.7006 33.3681 31.478 33.1411 31.478 32.291C31.478 29.934 31.478 27.5818 31.478 25.2247C31.478 21.2158 31.478 17.2053 31.478 13.1931C31.478 12.2271 31.6716 12.0339 32.6538 12.0339H35.557C36.3553 12.0339 36.5973 12.2803 36.5973 13.0917L36.5779 22.689ZM35.0295 31.8274V13.5844H33.0167V31.8225L35.0295 31.8274Z" fill="white"/>
<path d="M12.6897 20.2066H18.3654C19.3041 20.2066 19.5605 20.4819 19.4976 21.4044C19.2315 25.1525 16.2655 28.2196 12.6559 28.4852C11.646 28.5775 10.6278 28.466 9.66197 28.1574C8.69611 27.8489 7.80229 27.3496 7.03366 26.6892C6.26503 26.0289 5.63729 25.221 5.18779 24.3135C4.7383 23.4061 4.47621 22.4177 4.41714 21.4071C4.35807 20.3965 4.5032 19.3844 4.84392 18.4309C5.18464 17.4774 5.71398 16.6021 6.40045 15.857C7.08693 15.1119 7.91651 14.5122 8.83986 14.0936C9.76321 13.675 10.7615 13.4461 11.7752 13.4204C12.3849 13.4204 12.6752 13.6909 12.6752 14.3091C12.6752 16.0769 12.6752 17.8447 12.6752 19.6222L12.6897 20.2066ZM11.1898 15.0578C8.55759 14.966 5.98346 17.8592 5.9012 20.9214C5.89427 22.5044 6.50794 24.0273 7.61103 25.1645C8.71412 26.3018 10.2191 26.9631 11.8043 27.0073C14.8623 27.0749 17.8428 24.5101 17.8719 21.7329H12.2591C11.3833 21.7329 11.1801 21.5204 11.1753 20.6316V15.0578H11.1898Z" fill="white"/>
<path d="M28.7393 25.4133C28.7393 27.7027 28.7393 29.9921 28.7393 32.2816C28.7393 33.151 28.5216 33.3635 27.641 33.3683C26.62 33.3683 25.5942 33.3683 24.5685 33.3683C23.9201 33.3683 23.6443 33.1027 23.6443 32.4506C23.6443 27.7751 23.6443 23.1061 23.6443 18.4435C23.6443 17.7673 23.9201 17.4775 24.612 17.4775H27.7813C28.4877 17.4775 28.749 17.7335 28.749 18.4435C28.7442 20.7716 28.7393 23.0949 28.7393 25.4133ZM25.1926 19.028V31.8275H27.191V19.028H25.1926Z" fill="white"/>
<path d="M39.3116 27.9251V23.4476C39.3116 22.699 39.5584 22.4816 40.3083 22.4526H43.4244C44.1308 22.4526 44.3921 22.7183 44.3921 23.4186C44.3921 26.4229 44.3921 29.4256 44.3921 32.4266C44.3921 33.098 44.1211 33.3588 43.4244 33.3588C42.3502 33.3588 41.2809 33.3588 40.2067 33.3588C39.5535 33.3588 39.2922 33.1028 39.2922 32.446C39.3068 30.939 39.3116 29.432 39.3116 27.9251ZM40.8503 24.0031V31.8132H42.8438V24.0031H40.8503Z" fill="white"/>
<path d="M34.1535 35.4985H23.4699C23.2905 35.5098 23.1105 35.5017 22.9328 35.4743C22.7606 35.4515 22.6032 35.3648 22.492 35.2315C22.3809 35.0981 22.3241 34.9279 22.3329 34.7547C22.3159 34.5821 22.3655 34.4095 22.4716 34.2722C22.5777 34.1349 22.7323 34.0431 22.9038 34.0157C23.0791 33.9816 23.2576 33.967 23.4361 33.9722H45.0984C45.6548 34.0012 45.9839 34.291 45.979 34.745C45.9742 35.199 45.6355 35.4985 45.0839 35.4985H34.1535Z" fill="white"/>
<path d="M13.5365 15.9128C13.5365 15.082 13.5365 14.256 13.5365 13.4301C13.5365 12.7008 13.7929 12.4641 14.5042 12.4641C16.0759 12.5196 17.5678 13.169 18.6781 14.2809C19.7884 15.3928 20.4341 16.8842 20.4847 18.4533C20.4847 19.0619 20.2185 19.3807 19.6186 19.3855C17.8767 19.3855 16.1396 19.3855 14.3977 19.3855C13.8074 19.3855 13.5607 19.1054 13.5558 18.492C13.5268 17.6322 13.5365 16.7725 13.5365 15.9128ZM18.8299 17.8448C18.7041 16.0528 16.8025 14.1691 15.0751 14.0822V17.8448H18.8299Z" fill="white"/>
<path d="M15.4672 3.83279H24.2008C24.3617 3.81615 24.5238 3.81615 24.6847 3.83279C24.866 3.85117 25.0333 3.93884 25.1514 4.07746C25.2696 4.21609 25.3294 4.39494 25.3185 4.57662C25.3287 4.74995 25.2731 4.92075 25.1628 5.05501C25.0525 5.18927 24.8956 5.27714 24.7234 5.30112C24.5634 5.32712 24.4015 5.33844 24.2395 5.33493C18.3687 5.33493 12.4979 5.33493 6.62706 5.33493C6.49831 5.34697 6.36872 5.34697 6.23997 5.33493C6.05151 5.3146 5.87774 5.22379 5.75364 5.08076C5.62953 4.93772 5.56429 4.75308 5.57103 4.56398C5.57778 4.37487 5.65601 4.19533 5.78999 4.06147C5.92397 3.92761 6.10376 3.84936 6.29319 3.84246C6.52045 3.83035 6.74818 3.83035 6.97544 3.84246L15.4672 3.83279Z" fill="white"/>
<path d="M42.2195 6.76445C41.9214 6.7843 41.6223 6.74282 41.3409 6.64258C41.0595 6.54233 40.8017 6.38546 40.5835 6.18169C40.3653 5.97792 40.1913 5.73158 40.0724 5.45795C39.9535 5.18431 39.8921 4.88921 39.8921 4.59094C39.8921 4.29266 39.9535 3.99756 40.0724 3.72393C40.1913 3.4503 40.3653 3.20396 40.5835 3.00019C40.8017 2.79641 41.0595 2.63955 41.3409 2.5393C41.6223 2.43906 41.9214 2.39758 42.2195 2.41743C42.5177 2.39758 42.8167 2.43906 43.0981 2.5393C43.3796 2.63955 43.6374 2.79641 43.8556 3.00019C44.0738 3.20396 44.2477 3.4503 44.3667 3.72393C44.4856 3.99756 44.547 4.29266 44.547 4.59094C44.547 4.88921 44.4856 5.18431 44.3667 5.45795C44.2477 5.73158 44.0738 5.97792 43.8556 6.18169C43.6374 6.38546 43.3796 6.54233 43.0981 6.64258C42.8167 6.74282 42.5177 6.7843 42.2195 6.76445ZM42.2195 5.27197C42.3087 5.27011 42.3966 5.25056 42.4781 5.21447C42.5597 5.17837 42.6332 5.12645 42.6944 5.06173C42.7557 4.997 42.8034 4.92076 42.8348 4.83745C42.8663 4.75414 42.8808 4.66542 42.8776 4.57645C42.8817 4.49078 42.8679 4.4052 42.837 4.32515C42.8062 4.24509 42.759 4.17232 42.6985 4.11145C42.638 4.05058 42.5654 4.00294 42.4855 3.97157C42.4055 3.9402 42.3199 3.92578 42.234 3.92923C42.1447 3.92393 42.0551 3.93703 41.971 3.96772C41.8869 3.99841 41.81 4.04604 41.7452 4.10764C41.6803 4.16924 41.6288 4.24351 41.5938 4.32581C41.5589 4.40812 41.5413 4.49672 41.5421 4.58611C41.5433 4.76516 41.6141 4.93675 41.7396 5.0647C41.865 5.19265 42.0354 5.26697 42.2147 5.27197H42.2195Z" fill="white"/>
<path d="M36.0504 6.7646C35.6174 6.75769 35.1964 6.62237 34.8407 6.37586C34.485 6.12935 34.2109 5.78279 34.0531 5.38029C33.8953 4.97779 33.8611 4.53753 33.9547 4.11554C34.0483 3.69354 34.2656 3.30889 34.5788 3.01052C34.8921 2.71215 35.2872 2.51355 35.7139 2.43998C36.1406 2.36642 36.5795 2.42123 36.9749 2.59743C37.3702 2.77362 37.7042 3.06325 37.9342 3.42945C38.1642 3.79565 38.2798 4.22187 38.2664 4.65389C38.2602 4.93785 38.1978 5.21778 38.083 5.47766C37.9681 5.73753 37.803 5.97223 37.5972 6.1683C37.3913 6.36438 37.1487 6.51798 36.8833 6.6203C36.6179 6.72263 36.3348 6.77166 36.0504 6.7646ZM36.0794 3.92455C35.901 3.92455 35.73 3.99528 35.6038 4.12119C35.4777 4.2471 35.4068 4.41786 35.4068 4.59592C35.4068 4.77398 35.4777 4.94475 35.6038 5.07066C35.73 5.19656 35.901 5.2673 36.0794 5.2673C36.2578 5.2673 36.4288 5.19656 36.555 5.07066C36.6811 4.94475 36.752 4.77398 36.752 4.59592C36.752 4.41786 36.6811 4.2471 36.555 4.12119C36.4288 3.99528 36.2578 3.92455 36.0794 3.92455Z" fill="white"/>
<path d="M29.9246 6.76464C29.6401 6.7634 29.3585 6.70574 29.0965 6.59499C28.8344 6.48423 28.597 6.3226 28.398 6.11948C28.199 5.91636 28.0424 5.67581 27.9374 5.41178C27.8323 5.14775 27.7809 4.86552 27.786 4.58147C27.786 4.00502 28.0154 3.45218 28.4237 3.04456C28.8321 2.63695 29.3859 2.40796 29.9634 2.40796C30.5408 2.40796 31.0947 2.63695 31.503 3.04456C31.9113 3.45218 32.1407 4.00502 32.1407 4.58147C32.1454 4.87192 32.0911 5.16031 31.981 5.42922C31.8709 5.69812 31.7074 5.94197 31.5003 6.14602C31.2932 6.35007 31.0467 6.51009 30.7759 6.61641C30.5051 6.72274 30.2155 6.77316 29.9246 6.76464ZM30.6408 4.60562C30.6414 4.51623 30.6242 4.42761 30.5901 4.34496C30.5559 4.2623 30.5056 4.18728 30.4421 4.1243C30.3785 4.06131 30.303 4.01163 30.22 3.97817C30.137 3.9447 30.0481 3.92813 29.9585 3.92942C29.8729 3.92484 29.7872 3.93766 29.7067 3.9671C29.6261 3.99653 29.5524 4.04198 29.49 4.10068C29.4276 4.15939 29.3777 4.23012 29.3435 4.30861C29.3093 4.3871 29.2913 4.47171 29.2908 4.55732C29.2856 4.64692 29.2983 4.73667 29.3282 4.82133C29.3581 4.90598 29.4046 4.98384 29.4649 5.05038C29.5253 5.11692 29.5983 5.1708 29.6797 5.20888C29.7611 5.24695 29.8493 5.26847 29.9392 5.27216C30.1203 5.27362 30.2951 5.20505 30.4268 5.0808C30.5584 4.95656 30.6369 4.78628 30.6456 4.60562H30.6408Z" fill="white"/>
</svg>
