<svg width="38" height="40" viewBox="0 0 38 40" fill="none" xmlns="http://www.w3.org/2000/svg">
<path d="M8.06053 38.9511C8.06191 38.5854 8.08464 38.22 8.12862 37.857C8.22094 37.3296 8.49282 36.8507 8.89776 36.5024C9.30269 36.154 9.81554 35.9578 10.3486 35.9472C10.7231 35.9325 11.0975 35.9472 11.472 35.9325C11.5818 35.9007 11.6782 35.8339 11.7467 35.742C11.7808 35.7054 11.7467 35.6126 11.7467 35.5467V32.3547H2.86192C1.10635 32.3547 0 31.2533 0 29.4949C0 21.8639 0 14.2337 0 6.60426C0 4.85321 1.12094 3.74201 2.87407 3.74201C11.4477 3.74201 20.0212 3.74201 28.5948 3.74201C28.7672 3.75468 28.9398 3.7189 29.0931 3.63867C29.2464 3.55844 29.3744 3.43694 29.4629 3.28777C30.0635 2.46963 30.7151 1.68569 31.3911 0.926168C31.671 0.636701 32.0005 0.400119 32.3637 0.227702C33.5625 -0.390173 34.7734 0.303409 34.7952 1.65638C34.7952 2.32799 34.6299 3.00203 34.5326 3.73469C34.7004 3.73469 34.9314 3.73469 35.1624 3.73469C36.8912 3.73469 38 4.841 38 6.58228C38 11.6865 38 16.7915 38 21.8973C38 24.4494 38 27.0014 38 29.5535C38 30.9431 37.217 31.9811 35.9551 32.279C35.6544 32.3407 35.3476 32.3669 35.0408 32.3572C32.2721 32.3572 29.5034 32.3572 26.7347 32.3572H26.2751V35.9374C26.6302 35.9374 26.973 35.957 27.3158 35.9374C27.6672 35.9023 28.022 35.9461 28.3544 36.0656C28.6869 36.185 28.9888 36.3772 29.2382 36.6282C29.4877 36.8792 29.6785 37.1828 29.7968 37.517C29.9151 37.8511 29.958 38.2075 29.9224 38.5603C29.9224 38.6653 29.9224 38.7728 29.9224 38.9462H30.8367C31.323 38.9462 31.8263 38.9462 32.3199 38.9462C32.3918 38.9413 32.4638 38.9512 32.5316 38.9755C32.5994 38.9997 32.6616 39.0377 32.7142 39.087C32.7668 39.1364 32.8087 39.196 32.8374 39.2624C32.8661 39.3287 32.8809 39.4002 32.8809 39.4725C32.8809 39.5448 32.8661 39.6163 32.8374 39.6826C32.8087 39.7489 32.7668 39.8086 32.7142 39.858C32.6616 39.9073 32.5994 39.9453 32.5316 39.9695C32.4638 39.9937 32.3918 40.0037 32.3199 39.9988C32.2008 39.9988 32.0768 39.9988 31.9601 39.9988H5.84298C5.38585 39.9988 5.1354 39.8083 5.13054 39.4737C5.12567 39.1391 5.37369 38.9389 5.83082 38.9364H8.06053V38.9511ZM15.9654 18.0239C16.1138 17.8212 16.194 17.7162 16.2645 17.6088L19.3356 12.9881C19.9969 11.9942 20.9598 11.9917 21.6212 12.9881C22.8905 14.8979 24.1581 16.8085 25.4241 18.72C25.6211 19.0179 25.8229 19.3134 26.0393 19.6358C26.1438 19.499 26.2265 19.3916 26.3019 19.289C26.9633 18.3585 27.6174 17.4256 28.2812 16.5C28.6191 16.0262 29.1055 15.8064 29.6039 16.0116C29.9207 16.1412 30.1934 16.36 30.3893 16.6417C32.1813 19.2988 33.9442 21.9754 35.7217 24.6398C35.8019 24.7619 35.9308 24.9134 36.0572 24.9329C36.3612 24.9602 36.6668 24.9651 36.9715 24.9476V6.72637C36.9751 6.57805 36.9703 6.42965 36.9569 6.28189C36.9296 5.8807 36.7503 5.50525 36.4559 5.23272C36.1614 4.96018 35.7743 4.81127 35.3739 4.81658C35.0262 4.81658 34.6785 4.83123 34.3308 4.81658C34.2201 4.79941 34.1069 4.82114 34.0104 4.87809C33.9138 4.93505 33.8398 5.02374 33.8007 5.12918C32.7084 7.2285 31.2546 9.11697 29.5067 10.7071C29.4307 10.7601 29.3781 10.8406 29.36 10.9317C29.3418 11.0227 29.3595 11.1173 29.4094 11.1956C29.5233 11.4909 29.5707 11.8079 29.548 12.1238C29.5253 12.4396 29.4331 12.7465 29.2781 13.0223C28.8082 13.9257 28.0329 14.631 27.0916 15.0115C26.1502 15.392 25.1046 15.4228 24.1427 15.0982C23.9829 15.0559 23.8365 14.9733 23.7173 14.8584C23.5981 14.7435 23.51 14.5999 23.4613 14.4413C23.4127 14.2827 23.4051 14.1143 23.4392 13.9519C23.4733 13.7895 23.5481 13.6385 23.6564 13.5132C24.0808 13.0084 24.318 12.3715 24.3275 11.7109C24.4272 10.1772 25.1883 9.37859 26.5912 9.20519L28.4319 4.82879C28.3395 4.82879 28.235 4.81414 28.128 4.81414C19.7165 4.81414 11.3042 4.81414 2.89109 4.81414C1.67533 4.81414 1.06744 5.44422 1.06744 6.66043C1.06744 12.6096 1.06744 18.5604 1.06744 24.5128V24.9378H9.97901C10.4459 24.9378 10.9954 25.077 11.3577 24.8767C11.72 24.6765 11.934 24.1319 12.2039 23.7338C12.4738 23.3357 12.7583 22.8986 13.0744 22.4248H4.56399C3.59138 22.4248 3.10507 21.9363 3.10507 20.9595V11.557C3.10507 10.5557 3.57679 10.0917 4.58344 10.0917H14.453C15.5035 10.0917 15.9606 10.5557 15.9606 11.6181L15.9654 18.0239ZM1.06501 26.0172V26.4349C1.06501 27.4557 1.06501 28.4765 1.06501 29.4974C1.06501 30.6891 1.68262 31.3021 2.8765 31.3021H35.1332C36.3344 31.3021 36.9544 30.6769 36.9617 29.4607C36.9617 28.4399 36.9617 27.4191 36.9617 26.3982C36.9617 26.2712 36.9447 26.154 36.935 26.0172H1.06501ZM9.53161 11.1419C7.90005 11.1419 6.26849 11.1419 4.63694 11.1419C4.2406 11.1419 4.15063 11.2737 4.15063 11.6523C4.1636 14.7294 4.1636 17.8058 4.15063 20.8813C4.15063 21.255 4.26734 21.3697 4.63694 21.3697C7.9114 21.36 11.1883 21.36 14.4676 21.3697C14.8251 21.3697 14.9248 21.2379 14.9223 20.8813C14.9126 17.7879 14.9126 14.6985 14.9223 11.6132C14.9223 11.2395 14.8056 11.1248 14.436 11.1248C12.8045 11.1492 11.1632 11.1419 9.53161 11.1419ZM28.2325 24.9109L23.6369 17.9849C23.4327 18.2291 23.2771 18.4245 23.0996 18.6027C22.7859 18.9202 22.5136 18.9227 22.2048 18.6027C21.9932 18.3829 21.8133 18.1387 21.6066 17.8921C21.3124 18.1925 21.1203 18.4074 20.899 18.6125C20.5854 18.9153 20.3106 18.9129 19.9969 18.6125C19.783 18.4 19.5811 18.1754 19.3599 17.9385C19.0948 18.212 18.8736 18.4269 18.6645 18.6491C18.6136 18.7124 18.5494 18.7634 18.4764 18.7984C18.4034 18.8334 18.3235 18.8516 18.2426 18.8516C18.1617 18.8516 18.0818 18.8334 18.0088 18.7984C17.9358 18.7634 17.8715 18.7124 17.8207 18.6491C17.6311 18.466 17.4511 18.2755 17.2396 18.063C16.9964 18.422 16.8116 18.7639 16.5685 19.0594C16.336 19.3332 16.1607 19.6512 16.0529 19.9943C15.9452 20.3375 15.9072 20.6989 15.9411 21.0571C15.9995 21.8924 15.4694 22.3881 14.6184 22.4419C14.4909 22.4366 14.3661 22.4793 14.2682 22.5615C13.7382 23.3284 13.2275 24.1074 12.6804 24.9305L28.2325 24.9109ZM12.8385 35.9203H25.1737V32.3889H12.8385V35.9203ZM28.8526 38.934C29.0033 37.7446 28.5584 36.9802 27.0994 36.9924C21.6301 37.0364 16.1616 37.0364 10.6939 36.9924C9.6313 36.9924 8.91157 37.7251 9.19606 38.934H28.8526ZM34.5983 24.9256C34.5497 24.8279 34.5326 24.779 34.5059 24.7375C32.8443 22.227 31.1787 19.7139 29.5091 17.1985C29.334 16.9347 29.2124 16.9543 29.0398 17.1985C28.3039 18.2519 27.5598 19.3004 26.8077 20.344C26.7503 20.4132 26.7201 20.5011 26.7228 20.591C26.7255 20.681 26.7609 20.7669 26.8222 20.8325C27.6733 22.0991 28.517 23.3723 29.3535 24.6521C29.4057 24.7423 29.4829 24.8152 29.5758 24.8621C29.6686 24.9089 29.773 24.9276 29.8763 24.9158C31.0653 24.9158 32.2567 24.9158 33.4457 24.9158L34.5983 24.9256ZM30.6422 7.96945C30.9048 7.62265 31.1528 7.31005 31.3838 6.99257C32.3297 5.65669 33.2196 4.28906 33.6378 2.67722C33.7209 2.36696 33.7562 2.04575 33.7424 1.72476C33.701 1.11666 33.3388 0.91884 32.8087 1.20702C32.5276 1.36095 32.2697 1.55419 32.0427 1.78094C30.6179 3.20962 29.6112 4.91915 28.7213 6.75079L30.6422 7.96945ZM24.5244 14.092C25.998 14.4119 27.1845 14.092 28.0696 12.8953C28.6945 12.0528 28.6021 11.3446 27.7608 10.7194C27.2745 10.3555 26.725 10.1161 26.1171 10.3701C25.5092 10.6241 25.4022 11.1883 25.3658 11.7402C25.3573 12.597 25.0608 13.4258 24.5244 14.092ZM22.6692 17.555L23.0996 17.1374C22.2655 15.887 21.4559 14.661 20.6364 13.44C20.4759 13.1957 20.3544 13.3471 20.2498 13.5083C19.8348 14.1319 19.4198 14.7563 19.0049 15.3815C18.6231 15.9579 18.2389 16.5367 17.845 17.135L18.2535 17.5502C18.4626 17.3377 18.645 17.1448 18.8322 16.9567C19.2334 16.5489 19.4839 16.5415 19.8729 16.9567C20.0626 17.157 20.2255 17.3841 20.4103 17.6137C20.7094 17.3084 20.9088 17.0935 21.1203 16.881C21.4388 16.5708 21.699 16.5733 22.02 16.881C22.2291 17.0886 22.4285 17.3059 22.6692 17.555ZM28.2617 7.71302C28.0842 8.24053 27.9164 8.70455 27.7754 9.17833C27.7633 9.23746 27.7654 9.29864 27.7815 9.35681C27.7975 9.41498 27.8271 9.46848 27.8678 9.51291C28.111 9.7034 28.3954 9.85482 28.6994 10.0453L29.9346 8.77293L28.2617 7.71302Z" fill="white"/>
<path d="M19.5139 28.0021C19.8202 28.0021 20.1241 28.0021 20.4305 28.0021C20.5011 27.9959 20.5724 28.0034 20.6399 28.0241C20.7074 28.0449 20.7698 28.0785 20.8231 28.1229C20.8764 28.1672 20.9195 28.2215 20.9499 28.2822C20.9803 28.3429 20.9972 28.4089 20.9997 28.4761C21.0022 28.5432 20.9901 28.6102 20.9643 28.6727C20.9384 28.7353 20.8994 28.7923 20.8494 28.84C20.7995 28.8878 20.7398 28.9254 20.674 28.9506C20.6082 28.9757 20.5376 28.9879 20.4666 28.9863C19.8178 29.0046 19.1666 29.0046 18.5177 28.9863C18.4464 28.9913 18.3748 28.9811 18.3081 28.9567C18.2414 28.9322 18.1813 28.894 18.1321 28.8448C18.0829 28.7956 18.0459 28.7367 18.0237 28.6723C18.0016 28.6079 17.9948 28.5397 18.0039 28.4725C18.0038 28.4098 18.0173 28.3476 18.0436 28.29C18.0699 28.2325 18.1085 28.1806 18.157 28.1378C18.2054 28.0949 18.2626 28.062 18.3251 28.041C18.3876 28.02 18.454 28.0115 18.5201 28.0158C18.853 28.0158 19.1834 28.0158 19.5139 28.0158V28.0021Z" fill="white"/>
<path d="M6.9224 15.2264C6.46801 15.1839 5.99199 15.1639 6.0001 14.6345C6.00822 14.1052 6.47072 14.1102 6.88183 14.0752C7.01165 13.6582 6.70873 12.964 7.54177 13.0015C8.28016 13.0339 8.03132 13.6532 8.12058 14.0727C8.53169 14.1226 9.01583 14.1177 8.9996 14.6645C8.98337 15.2114 8.52628 15.1639 8.09624 15.2239V18.9695C8.09624 19.1068 8.09624 19.2442 8.09624 19.3815C8.08001 19.7735 7.84199 20.0233 7.49039 19.9983C7.4079 19.9981 7.32643 19.9814 7.25154 19.9495C7.17666 19.9176 7.11011 19.8711 7.05645 19.8133C7.00279 19.7554 6.96328 19.6876 6.94061 19.6144C6.91794 19.5412 6.91265 19.4643 6.92511 19.389C6.92511 18.1954 6.92511 17.0043 6.92511 15.8107L6.9224 15.2264Z" fill="white"/>
<path d="M10.929 16.2487V14.1246C10.929 13.9597 10.929 13.7948 10.929 13.6248C10.9505 13.21 11.16 12.9951 11.5226 13.0001C11.8852 13.0051 12.092 13.2325 12.1 13.6448C12.1 14.2621 12.1 14.8793 12.1 15.4991V16.2487C12.5432 16.3012 13.0427 16.3062 12.9971 16.871C12.9568 17.3383 12.5459 17.3708 12.1 17.3708V19.15C12.1081 19.2735 12.1027 19.3974 12.0839 19.5199C12.0786 19.589 12.0583 19.6565 12.0244 19.7182C11.9905 19.78 11.9435 19.8347 11.8864 19.8792C11.8293 19.9238 11.7631 19.9572 11.6918 19.9774C11.6206 19.9977 11.5457 20.0044 11.4715 19.9972C11.3291 19.9972 11.1924 19.9445 11.0917 19.8508C10.991 19.7571 10.9344 19.63 10.9344 19.4974C10.9129 19.0176 10.921 18.5353 10.9183 18.0555V17.4058C10.4724 17.3908 10.0588 17.3558 10.0024 16.8635C9.97286 16.5261 10.2119 16.3712 10.929 16.2487Z" fill="white"/>
</svg>
