<svg width="16" height="16" viewBox="0 0 16 16" fill="none" xmlns="http://www.w3.org/2000/svg">
<path d="M14 1C14.2652 1 14.5196 1.10536 14.7071 1.29289C14.8946 1.48043 15 1.73478 15 2V14C15 14.2652 14.8946 14.5196 14.7071 14.7071C14.5196 14.8946 14.2652 15 14 15H2C1.73478 15 1.48043 14.8946 1.29289 14.7071C1.10536 14.5196 1 14.2652 1 14V2C1 1.73478 1.10536 1.48043 1.29289 1.29289C1.48043 1.10536 1.73478 1 2 1H14ZM2 0C1.46957 0 0.960859 0.210714 0.585786 0.585786C0.210714 0.960859 0 1.46957 0 2L0 14C0 14.5304 0.210714 15.0391 0.585786 15.4142C0.960859 15.7893 1.46957 16 2 16H14C14.5304 16 15.0391 15.7893 15.4142 15.4142C15.7893 15.0391 16 14.5304 16 14V2C16 1.46957 15.7893 0.960859 15.4142 0.585786C15.0391 0.210714 14.5304 0 14 0L2 0Z" fill="white"/>
<path d="M8.92995 6.588L6.63995 6.875L6.55795 7.255L7.00795 7.338C7.30195 7.408 7.35995 7.514 7.29595 7.807L6.55795 11.275C6.36395 12.172 6.66295 12.594 7.36595 12.594C7.91095 12.594 8.54395 12.342 8.83095 11.996L8.91895 11.58C8.71895 11.756 8.42695 11.826 8.23295 11.826C7.95795 11.826 7.85795 11.633 7.92895 11.293L8.92995 6.588ZM8.99995 4.5C8.99995 4.76522 8.8946 5.01957 8.70706 5.20711C8.51952 5.39464 8.26517 5.5 7.99995 5.5C7.73474 5.5 7.48038 5.39464 7.29285 5.20711C7.10531 5.01957 6.99995 4.76522 6.99995 4.5C6.99995 4.23478 7.10531 3.98043 7.29285 3.79289C7.48038 3.60536 7.73474 3.5 7.99995 3.5C8.26517 3.5 8.51952 3.60536 8.70706 3.79289C8.8946 3.98043 8.99995 4.23478 8.99995 4.5Z" fill="white"/>
</svg>
