<svg width="59" height="73" viewBox="0 0 59 73" fill="none" xmlns="http://www.w3.org/2000/svg">
<path d="M15.9839 49.3795H42.7938M15.9839 49.3795H8.01939C4.38713 49.3795 0.595354 46.5861 2.29068 43.3738C2.85861 42.2977 3.78435 41.2837 5.22768 40.4621C9.46591 38.0494 12.7238 36.1763 13.8229 35.5414M15.9839 49.3795C14.7259 43.7296 14.0463 40.0665 13.8229 35.5414M42.7938 49.3795C44.166 43.7397 44.9114 40.075 45.1668 35.5414M42.7938 49.3795H52.6667C55.3267 49.3795 57.8354 47.8463 57.3645 45.2283C57.0451 43.4524 56.1221 41.5752 54.1921 40.4621C50.3391 38.2398 45.1668 35.5414 45.1668 35.5414M13.8229 35.5414C13.3324 25.6073 15.04 18.2662 17.6508 13.0017M45.1668 35.5414C45.7237 25.6552 43.9505 18.2943 41.2656 13.0017M18.7129 49.5382V53.1261C18.7129 54.8107 20.0786 56.1763 21.7632 56.1763V56.1763M40.0646 49.5382V53.4472C40.0646 54.9544 38.8427 56.1763 37.3355 56.1763V56.1763M21.7632 56.1763C20.4118 62.6661 23.4713 67.0327 26.126 69.4832C28.031 71.2417 30.8709 71.1915 32.793 69.4516C35.6347 66.8794 39.0184 62.3427 37.3355 56.1763M21.7632 56.1763H37.3355M17.6508 13.0017C20.4003 7.45776 24.1514 4.21671 27.3919 2.67546C28.7059 2.05049 30.2331 2.05348 31.5403 2.69245C34.7061 4.23982 38.4774 7.50559 41.2656 13.0017M17.6508 13.0017C21.6952 15.806 32.0802 19.7319 41.2656 13.0017" stroke="white" stroke-width="3" stroke-linecap="round" stroke-linejoin="round"/>
</svg>
