<svg width="46" height="40" viewBox="0 0 46 40" fill="none" xmlns="http://www.w3.org/2000/svg">
<path d="M0 2.03953C0.0124634 1.54988 0.208853 1.08309 0.549734 0.732902C1.12718 0.242151 1.86535 -0.0158503 2.62129 0.00886618C5.68841 0.00886618 8.75887 0.00886618 11.8293 0.00886618H34.288C34.4677 -0.00295539 34.648 -0.00295539 34.8277 0.00886618C34.9704 0.044978 35.0974 0.12731 35.189 0.243151C35.2806 0.358991 35.3316 0.501898 35.3343 0.649798C35.337 0.797699 35.2911 0.942369 35.2038 1.06147C35.1164 1.18057 34.9925 1.26747 34.8511 1.30876C34.6578 1.3346 34.4627 1.34361 34.2679 1.3357H2.9565C2.7325 1.33011 2.50841 1.34137 2.28609 1.36938C2.05435 1.40237 1.83941 1.50969 1.6733 1.67535C1.5072 1.84102 1.39881 2.05616 1.36428 2.28873C1.35417 2.40863 1.35417 2.52917 1.36428 2.64907V5.10069H44.6726V3.23166C44.7195 1.47377 44.1463 1.29529 42.7854 1.3256C41.2569 1.36264 39.7283 1.3256 38.1998 1.3256C38.0362 1.33194 37.8724 1.32292 37.7104 1.29866C37.6317 1.28949 37.5556 1.26474 37.4864 1.22586C37.4173 1.18697 37.3565 1.13471 37.3076 1.07209C37.2586 1.00946 37.2225 0.937726 37.2013 0.861014C37.1802 0.784301 37.1743 0.704134 37.1841 0.625138C37.1805 0.551707 37.1914 0.478282 37.2161 0.409067C37.2407 0.339853 37.2788 0.276207 37.328 0.221777C37.3772 0.167348 37.4366 0.123203 37.5028 0.0918693C37.569 0.0605355 37.6407 0.0426272 37.7138 0.0391734C39.8255 0.0391734 41.9373 -0.0147059 44.0458 0.0863222C45.1184 0.140204 45.943 1.24478 46 2.35946C46 2.52447 46 2.69621 46 2.85449V29.3508C46 31.2131 45.0279 32.1897 43.1809 32.1897H26.756C27.1481 34.3685 27.5303 36.5036 27.9191 38.6656C28.2543 38.6656 28.5526 38.6656 28.8342 38.6656C28.9173 38.6633 29.0001 38.6779 29.0775 38.7084C29.1549 38.7389 29.2254 38.7847 29.2848 38.8432C29.3442 38.9016 29.3913 38.9715 29.4233 39.0486C29.4553 39.1257 29.4716 39.2084 29.4711 39.292C29.4794 39.3787 29.4699 39.4663 29.4433 39.5492C29.4167 39.6322 29.3736 39.7088 29.3164 39.7744C29.2593 39.84 29.1894 39.8931 29.1111 39.9306C29.0328 39.9681 28.9477 39.9892 28.861 39.9924C28.7115 40.0025 28.5614 40.0025 28.4119 39.9924H17.6015C17.422 39.9989 17.2422 39.9865 17.0652 39.9554C16.9082 39.9336 16.7659 39.8509 16.6688 39.725C16.5717 39.5991 16.5275 39.4401 16.5457 39.2819C16.5401 39.1287 16.5946 38.9794 16.6974 38.8661C16.8002 38.7528 16.943 38.6844 17.0954 38.6757C17.4158 38.6588 17.737 38.6588 18.0574 38.6757C18.1915 38.0224 18.3088 37.4196 18.4362 36.8168C18.4651 36.624 18.5227 36.4367 18.6072 36.2611C18.6788 36.1257 18.7991 36.0229 18.9436 35.9734C19.088 35.924 19.2458 35.9318 19.3848 35.9951C19.5394 36.0384 19.6707 36.1412 19.7504 36.2811C19.8301 36.421 19.8517 36.5869 19.8105 36.7427C19.7066 37.3623 19.5826 37.9752 19.4753 38.6252H26.5682C26.1861 36.4733 25.8073 34.3517 25.4286 32.2065H20.5949C20.5312 32.6039 20.4642 33.0114 20.3971 33.4222C20.31 33.9341 20.0117 34.2204 19.6128 34.1665C19.2139 34.1126 18.996 33.7725 19.0597 33.2438C19.0798 33.0653 19.1167 32.907 19.1435 32.7117C19.1703 32.5164 19.1871 32.3749 19.2172 32.1863H18.6574C13.4919 32.1863 8.32311 32.156 3.15762 32.2032C1.37434 32.1762 0 31.6004 0 30.2062V2.03953ZM26.4811 9.91299H1.37433V25.5993H26.4945L26.4811 9.91299ZM27.8655 9.91299V25.6262H44.6257V9.89615L27.8655 9.91299ZM44.6659 27.0339H1.35087C1.35087 27.9701 1.35087 28.8726 1.35087 29.7718C1.34384 29.9047 1.36435 30.0377 1.41108 30.1624C1.45781 30.287 1.52976 30.4005 1.62239 30.4958C1.96625 30.7224 2.36762 30.8451 2.77884 30.8494H43.2312C43.38 30.8556 43.5291 30.8499 43.677 30.8326C43.9419 30.8071 44.1884 30.6852 44.3699 30.4898C44.5515 30.2944 44.6555 30.039 44.6625 29.7718C44.6826 28.8625 44.6659 27.96 44.6659 27.0339ZM1.36093 8.51207H44.6424V6.55549H1.36093V8.51207Z" fill="white"/>
<path d="M4.50106 3C4.60129 3.00021 4.69914 3.03054 4.78192 3.08706C4.8647 3.14357 4.92858 3.22366 4.96528 3.31693C5.00198 3.4102 5.0098 3.51235 4.98772 3.61012C4.96565 3.70789 4.9147 3.79677 4.84148 3.86522C4.76827 3.93368 4.67617 3.97855 4.57714 3.99401C4.47811 4.00948 4.37672 3.99482 4.28612 3.95195C4.19552 3.90907 4.1199 3.83996 4.06907 3.75357C4.01824 3.66719 3.99454 3.56752 4.00106 3.4675C4.00932 3.3406 4.06563 3.22162 4.15852 3.13477C4.2514 3.04792 4.37389 2.99973 4.50106 3Z" fill="white"/>
<path d="M7.98 3.9999C7.84871 3.99859 7.71922 3.98436 7.59892 3.95802C7.47862 3.93169 7.36988 3.89376 7.2789 3.84641C7.18791 3.79906 7.11647 3.74322 7.06865 3.68207C7.02083 3.62091 6.99757 3.55565 7.0002 3.49C7.00283 3.42435 7.03129 3.35961 7.08396 3.29946C7.13663 3.23931 7.21248 3.18494 7.30717 3.13945C7.40187 3.09396 7.51356 3.05824 7.63587 3.03433C7.75817 3.01042 7.8887 2.99879 8.02 3.0001C8.28516 3.00275 8.53736 3.05796 8.7211 3.15359C8.90485 3.24921 9.0051 3.37742 8.9998 3.51C8.9945 3.64258 8.88407 3.76868 8.69282 3.86055C8.50158 3.95243 8.24517 4.00255 7.98 3.9999Z" fill="white"/>
<path d="M11.4888 3.99987C11.3562 3.99689 11.2302 3.94136 11.1386 3.84551C11.0469 3.74966 10.9971 3.62133 11.0001 3.48875C11.0031 3.35618 11.0586 3.23022 11.1545 3.13858C11.2503 3.04695 11.3787 2.99714 11.5112 3.00013C11.6438 3.00311 11.7698 3.05864 11.8614 3.15449C11.9531 3.25034 12.0029 3.37867 11.9999 3.51125C11.9969 3.64382 11.9414 3.76978 11.8455 3.86142C11.7497 3.95305 11.6213 4.00286 11.4888 3.99987Z" fill="white"/>
<path d="M15.9257 15.5868C15.8792 15.7263 15.839 15.8718 15.7801 16.0051C15.262 17.1691 14.7458 18.3321 14.2318 19.494C14.0305 19.9366 13.7177 20.1003 13.3647 19.9396C13.0117 19.779 12.9002 19.4516 13.0953 19.0303C13.6279 17.8178 14.1668 16.6295 14.7056 15.4292C14.8418 15.1261 15.0865 14.9169 15.4178 15.0321C15.6408 15.1109 15.808 15.3352 16 15.5019L15.9257 15.5868Z" fill="white"/>
<path d="M10.0698 20C9.86255 19.9206 9.67594 19.8095 9.52012 19.6726C8.99983 19.0782 8.52029 18.4607 8.0837 17.823C8.02344 17.7016 7.99515 17.5713 8.00068 17.4404C8.00621 17.3096 8.04544 17.1811 8.1158 17.0635C8.51704 16.4644 9.01858 15.9046 9.49605 15.3382C9.55051 15.2578 9.62512 15.1876 9.71502 15.1322C9.80493 15.0768 9.90812 15.0375 10.0179 15.0168C10.1276 14.9961 10.2415 14.9945 10.3521 15.0121C10.4626 15.0297 10.5674 15.0661 10.6596 15.1189C10.7469 15.1696 10.8208 15.2339 10.8771 15.3083C10.9334 15.3826 10.9708 15.4654 10.9873 15.5518C11.0037 15.6381 10.9988 15.7262 10.9729 15.811C10.9469 15.8958 10.9005 15.9755 10.8362 16.0453C10.5473 16.4316 10.2423 16.8114 9.91735 17.1781C9.82766 17.2568 9.77781 17.3603 9.77781 17.4678C9.77781 17.5753 9.82766 17.6788 9.91735 17.7575C10.2708 18.1632 10.5976 18.5839 10.8964 19.0179C11.1933 19.4598 10.8322 19.9804 10.0698 20Z" fill="white"/>
<path d="M18.6548 15.0001C18.781 15.0785 18.8948 15.1839 18.9908 15.3114C19.3311 15.8745 19.6454 16.4608 19.932 17.0674C19.9768 17.1877 20 17.3184 20 17.4507C20 17.583 19.9768 17.7138 19.932 17.834C19.6653 18.4631 19.3267 19.0561 19.0041 19.6523C18.9691 19.7332 18.9207 19.8041 18.8621 19.8606C18.8034 19.9171 18.7358 19.9578 18.6635 19.9802C18.5912 20.0025 18.516 20.006 18.4425 19.9904C18.3691 19.9749 18.2991 19.9405 18.2371 19.8897C18.1752 19.8389 18.1226 19.7726 18.0827 19.6952C18.0428 19.6179 18.0166 19.5311 18.0057 19.4405C17.9948 19.3499 17.9995 19.2575 18.0195 19.1693C18.0394 19.0811 18.0742 18.999 18.1216 18.9283C18.3189 18.5286 18.5189 18.1256 18.7375 17.7423C18.7931 17.6689 18.8241 17.5723 18.8241 17.472C18.8241 17.3717 18.7931 17.2751 18.7375 17.2017C18.5038 16.8139 18.2867 16.4115 18.0869 15.9961C17.8736 15.5276 18.1269 14.9903 18.6548 15.0001Z" fill="white"/>
<path d="M36.4955 15.9818H31.0357C30.8902 15.9942 30.7444 15.9942 30.5989 15.9818C30.4432 15.9768 30.2947 15.8805 30.1842 15.7131C30.0738 15.5456 30.0098 15.3198 30.0057 15.0824C29.9841 14.8461 30.0243 14.6065 30.1176 14.415C30.2109 14.2235 30.3498 14.0956 30.5044 14.0588C30.6609 14.0104 30.8208 13.992 30.9803 14.0041H42.0336C42.1786 13.9924 42.324 14.0057 42.4671 14.0439C42.6221 14.0749 42.7634 14.1951 42.8622 14.3799C42.961 14.5646 43.0097 14.8 42.9984 15.0377C43.001 15.1613 42.9873 15.2845 42.9579 15.3998C42.9286 15.5151 42.8843 15.6202 42.8277 15.7088C42.7711 15.7974 42.7033 15.8677 42.6285 15.9155C42.5536 15.9632 42.4732 15.9875 42.3921 15.9867C42.177 16.0166 41.9586 15.9867 41.7402 15.9867L36.4955 15.9818Z" fill="white"/>
<path d="M36.4802 21.0055C38.4132 21.0055 40.3429 21.0055 42.2759 21.0055C42.3676 20.9908 42.4602 21.0056 42.5479 21.049C42.6355 21.0925 42.7161 21.1635 42.7844 21.2574C42.8528 21.3514 42.9073 21.4662 42.9444 21.5944C42.9816 21.7225 43.0005 21.8612 43 22.0012C42.9932 22.2715 42.917 22.527 42.7878 22.713C42.6586 22.8991 42.4867 23.001 42.3087 22.9969C42.1907 22.9969 42.0728 22.9969 41.9581 22.9969H30.9367C30.7755 23.0071 30.6141 22.9921 30.455 22.9521C30.3147 22.8836 30.1936 22.7452 30.1113 22.5593C30.0291 22.3733 29.9906 22.1506 30.002 21.9273C30.0133 21.7039 30.0739 21.4929 30.174 21.3283C30.274 21.1638 30.4077 21.0553 30.5533 21.0204C31.0775 20.9906 31.605 21.0204 32.1325 21.0204L36.4802 21.0055Z" fill="white"/>
<path d="M36.4693 17.9989H30.9607C30.8136 18.0022 30.6663 17.9981 30.52 17.9865C30.3773 17.9634 30.2489 17.9052 30.1549 17.8211C30.0609 17.7369 30.0066 17.6316 30.0006 17.5216C29.9945 17.4116 30.0371 17.3032 30.1216 17.2135C30.2061 17.1237 30.3277 17.0577 30.4673 17.0259C30.6125 17.0052 30.7604 16.9969 30.908 17.0011H42.0897C42.251 16.9975 42.4123 17.0091 42.5698 17.0358C42.7021 17.0726 42.8152 17.1405 42.8924 17.2295C42.9697 17.3185 43.007 17.4239 42.9989 17.5301C42.9908 17.6364 42.9377 17.7378 42.8474 17.8195C42.7571 17.9012 42.6345 17.9589 42.4975 17.984C42.3365 17.9927 42.175 17.9927 42.014 17.984L36.4693 17.9989Z" fill="white"/>
<path d="M36.4736 19.0307H41.9482C42.0919 19.0307 42.2389 19.0307 42.3826 19.0307C42.5461 19.0327 42.7022 19.0829 42.8175 19.1706C42.9328 19.2584 42.9983 19.3768 43 19.5007C43.0003 19.6273 42.9364 19.7491 42.8215 19.8412C42.7067 19.9332 42.5496 19.9884 42.3826 19.9953C42.2663 20.0015 42.1495 20.0015 42.0331 19.9953H30.9272C30.7704 19.9953 30.5613 20.0201 30.4601 19.9558C30.2503 19.84 30.092 19.6787 30.006 19.4932C29.995 19.4381 29.9991 19.3818 30.018 19.3279C30.0368 19.274 30.0701 19.2235 30.1157 19.1797C30.1613 19.1359 30.2183 19.0996 30.2832 19.0732C30.348 19.0467 30.4193 19.0306 30.4927 19.0258C30.6655 19.0052 30.8405 18.9969 31.0154 19.001L36.4736 19.0307Z" fill="white"/>
<path d="M31.0334 12.0131C31.179 12.0056 31.3249 12.0056 31.4705 12.0131C31.5453 12.0149 31.6188 12.0294 31.6866 12.0559C31.7543 12.0824 31.8148 12.1202 31.8642 12.167C31.9136 12.2137 31.9509 12.2685 31.9738 12.3279C31.9968 12.3872 32.0047 12.4498 31.9973 12.5119C32.0026 12.5707 31.9936 12.6299 31.9708 12.6857C31.948 12.7416 31.9119 12.7931 31.8647 12.8371C31.8174 12.8811 31.76 12.9167 31.6959 12.9418C31.6318 12.9669 31.5622 12.981 31.4914 12.9832C31.1727 13.0056 30.8523 13.0056 30.5335 12.9832C30.4581 12.9829 30.3835 12.9694 30.3147 12.9434C30.246 12.9175 30.1846 12.8797 30.1346 12.8326C30.0845 12.7855 30.047 12.7302 30.0245 12.6702C30.0019 12.6102 29.9948 12.5469 30.0037 12.4844C30 12.4224 30.0116 12.3604 30.0377 12.3023C30.0637 12.2441 30.1038 12.191 30.1553 12.1462C30.2069 12.1014 30.2689 12.0658 30.3375 12.0416C30.4061 12.0175 30.48 12.0052 30.5545 12.0056C30.714 11.9981 30.8739 11.9981 31.0334 12.0056V12.0131Z" fill="white"/>
</svg>
