<svg width="53" height="54" viewBox="0 0 53 54" fill="none" xmlns="http://www.w3.org/2000/svg">
<path id="Vector" d="M52.4644 22.1331C52.7792 23.9453 52.9362 25.7815 52.9335 27.6208C52.9335 35.8356 49.9972 42.7813 44.8875 47.4827H44.8942C40.4258 51.6103 34.2832 53.9998 27 53.9998C19.8392 53.9998 12.9716 51.1552 7.90812 46.0917C2.84464 41.0282 0 34.1607 0 26.9998C0 19.839 2.84464 12.9714 7.90812 7.90795C12.9716 2.84446 19.8392 -0.000171508 27 -0.000171508C33.7025 -0.0786684 40.1755 2.43939 45.063 7.02658L37.3545 14.7351C34.568 12.0789 30.8492 10.6243 27 10.6851C19.9564 10.6851 13.9725 15.4371 11.8395 21.8361C10.7086 25.1892 10.7086 28.8206 11.8395 32.1737H11.8496C13.9928 38.5626 19.9665 43.3146 27.0101 43.3146C30.6484 43.3146 33.7736 42.3831 36.1969 40.7361H36.1868C37.5938 39.8039 38.7974 38.5963 39.7249 37.1862C40.6525 35.7761 41.2847 34.1926 41.5834 32.5315H27V22.1365L52.4644 22.1331Z" fill="white"/>
</svg>
