<svg width="16" height="16" viewBox="0 0 16 16" fill="none" xmlns="http://www.w3.org/2000/svg">
<path d="M8.5174 1.01887C8.34604 1.00622 8.17427 0.999885 8.00244 0.999875V0C8.19896 9.58156e-05 8.39542 0.00743321 8.5914 0.0219973L8.5174 1.01887ZM10.5213 1.46882C10.2007 1.34513 9.87153 1.2452 9.53633 1.16985L9.75531 0.193976C10.1393 0.279965 10.5146 0.393951 10.8812 0.535933L10.5213 1.46882ZM11.8912 2.17873C11.7482 2.08338 11.6018 1.99333 11.4522 1.90876L11.9452 1.03887C12.2871 1.2325 12.6143 1.45107 12.9241 1.69279L12.3091 2.48169C12.1736 2.37594 12.0341 2.27521 11.8912 2.17973V2.17873ZM13.725 3.9685C13.5272 3.68754 13.309 3.42152 13.0721 3.1726L13.796 2.48269C14.0667 2.76865 14.3156 3.07195 14.543 3.39258L13.725 3.9685ZM14.469 5.32033C14.4034 5.16178 14.332 5.0057 14.255 4.85239L15.1479 4.40245C15.3244 4.75353 15.4748 5.11713 15.5979 5.49031L14.648 5.80327C14.5942 5.64015 14.5345 5.47906 14.469 5.32033ZM14.9989 7.82702C14.9908 7.48341 14.9574 7.14086 14.8989 6.80215L15.8839 6.63217C15.9505 7.01879 15.9892 7.40874 15.9999 7.80202L14.9989 7.82702ZM14.8679 9.36483C14.9013 9.19552 14.9283 9.02554 14.9489 8.85489L15.9419 8.97788C15.8937 9.36796 15.8168 9.75395 15.7119 10.1327L14.7479 9.86577C14.7939 9.70112 14.8339 9.53414 14.8679 9.36483ZM13.916 11.7435C14.1 11.4529 14.262 11.1503 14.402 10.8356L15.3159 11.2406C15.1559 11.6005 14.9709 11.9465 14.7609 12.2785L13.916 11.7435ZM12.9521 12.9484C13.0741 12.8264 13.1907 12.7004 13.3021 12.5704L14.06 13.2233C13.9317 13.3722 13.7979 13.5163 13.659 13.6553L12.9521 12.9484Z" fill="white"/>
<path d="M8.00254 0.999875C6.8515 0.999958 5.71825 1.28389 4.70316 1.82651C3.68806 2.36913 2.82246 3.15371 2.18302 4.11074C1.54358 5.06776 1.15003 6.16771 1.03724 7.31315C0.924451 8.45858 1.09589 9.61416 1.53639 10.6775C1.97688 11.7409 2.67283 12.6792 3.56259 13.4094C4.45235 14.1396 5.50846 14.639 6.63737 14.8636C7.76629 15.0882 8.93316 15.0309 10.0346 14.6968C11.1361 14.3627 12.1382 13.7622 12.9522 12.9484L13.6591 13.6553C12.7289 14.586 11.5835 15.2728 10.3244 15.655C9.06529 16.0373 7.73133 16.103 6.44072 15.8465C5.1501 15.59 3.94269 15.0191 2.92546 14.1845C1.90822 13.3498 1.11258 12.2771 0.609014 11.0615C0.10545 9.84588 -0.0904833 8.52481 0.0385751 7.21537C0.167633 5.90592 0.617698 4.64852 1.34889 3.55457C2.08009 2.46063 3.06983 1.56392 4.23044 0.943885C5.39105 0.323855 6.68668 -0.000348689 8.00254 2.81423e-07V0.999875Z" fill="white"/>
<path d="M7.5024 2.99963C7.635 2.99963 7.76217 3.05231 7.85593 3.14606C7.94969 3.23982 8.00237 3.36698 8.00237 3.49957V8.70892L11.2501 10.5647C11.3619 10.6321 11.4429 10.7406 11.4757 10.8669C11.5086 10.9933 11.4907 11.1275 11.426 11.2408C11.3612 11.3541 11.2547 11.4377 11.1291 11.4735C11.0036 11.5093 10.869 11.4946 10.7542 11.4326L7.25442 9.43283C7.1779 9.38912 7.11429 9.32596 7.07004 9.24976C7.02579 9.17355 7.00247 9.087 7.00244 8.99888V3.49957C7.00244 3.36698 7.05512 3.23982 7.14888 3.14606C7.24264 3.05231 7.36981 2.99963 7.5024 2.99963Z" fill="white"/>
</svg>
