<svg width="26" height="26" viewBox="0 0 26 26" fill="none" xmlns="http://www.w3.org/2000/svg">
<path d="M5.28563 10.749L2.06365 13.9712C0.742317 15.2927 0 17.0849 0 18.9537C0 20.8225 0.742317 22.6148 2.06365 23.9362C3.38498 25.2577 5.1771 26 7.04575 26C8.91439 26 10.7065 25.2577 12.0278 23.9362L16.3207 19.6407C17.1175 18.8437 17.7115 17.8672 18.0528 16.7931C18.3942 15.7191 18.4729 14.5788 18.2824 13.468C18.0919 12.3572 17.6378 11.3083 16.9581 10.4094C16.2784 9.51044 15.393 8.78768 14.3762 8.30176L13.0001 9.67802C12.8603 9.81796 12.7388 9.97499 12.6384 10.1454C13.424 10.3712 14.1371 10.7982 14.7071 11.3842C15.2771 11.9701 15.6844 12.6946 15.8886 13.4862C16.0928 14.2778 16.0869 15.1089 15.8715 15.8975C15.6561 16.6861 15.2386 17.4048 14.6604 17.9826L10.3699 22.2758C9.48858 23.1572 8.29327 23.6523 7.04692 23.6523C5.80057 23.6523 4.60526 23.1572 3.72396 22.2758C2.84265 21.3944 2.34754 20.199 2.34754 18.9525C2.34754 17.7061 2.84265 16.5107 3.72396 15.6293L5.58623 13.7692C5.32274 12.7847 5.22121 11.7661 5.28563 10.749Z" fill="white"/>
<path d="M9.67933 6.35701C8.88254 7.15399 8.28854 8.13049 7.94719 9.20455C7.60584 10.2786 7.5271 11.4189 7.71759 12.5297C7.90807 13.6405 8.36222 14.6894 9.04191 15.5883C9.7216 16.4873 10.607 17.21 11.6238 17.6959L13.4438 15.8734C12.6476 15.6598 11.9216 15.2404 11.3388 14.6574C10.756 14.0743 10.3369 13.348 10.1237 12.5517C9.91044 11.7553 9.91054 10.9168 10.124 10.1205C10.3374 9.32416 10.7567 8.59804 11.3396 8.01511L15.6301 3.72191C16.5114 2.84054 17.7067 2.34538 18.9531 2.34538C20.1995 2.34538 21.3948 2.84054 22.2761 3.72191C23.1574 4.60329 23.6525 5.79869 23.6525 7.04515C23.6525 8.2916 23.1574 9.487 22.2761 10.3684L20.4138 12.2284C20.6768 13.2149 20.7778 14.2365 20.7144 15.2511L23.9364 12.0288C25.2577 10.7074 26 8.91512 26 7.04632C26 5.17752 25.2577 3.38526 23.9364 2.06382C22.615 0.742378 20.8229 0 18.9543 0C17.0856 0 15.2935 0.742378 13.9722 2.06382L9.67933 6.35701Z" fill="white"/>
</svg>
