<svg width="36" height="40" viewBox="0 0 36 40" fill="none" xmlns="http://www.w3.org/2000/svg">
<path d="M4.76775 17.2004C4.76775 16.6509 4.76775 16.145 4.76775 15.6428C4.76775 15.1406 4.91663 15.0096 5.41047 15.0023H6.19117C6.19117 14.4419 6.19117 13.9106 6.19117 13.3647C6.19117 12.8189 6.30011 12.6697 6.88836 12.6697H10.2399C10.7338 12.6697 10.8718 12.8079 10.8754 13.3138C10.879 13.8196 10.8754 14.4055 10.8754 15.006C11.1804 15.006 11.4528 15.006 11.7251 15.006C12.1245 15.006 12.2698 15.1661 12.2807 15.5701C12.2807 16.0759 12.2807 16.5817 12.2807 17.0876C12.2807 17.1094 12.3025 17.1312 12.3279 17.1786H14.6409C14.5974 16.4507 14.5538 15.7229 14.5102 14.9951C14.3035 12.4052 14.5643 9.79913 15.28 7.30194C15.7961 5.43989 16.7656 3.73548 18.1015 2.3418C21.1807 -0.769657 25.7524 -0.784213 28.8425 2.31997C30.4548 3.93938 31.3844 5.9591 31.9145 8.14258C32.4613 10.4507 32.6354 12.8318 32.4301 15.1952C32.303 17.0148 32.1505 18.8344 32.0017 20.6539C31.9799 20.9451 31.9218 21.2289 31.8746 21.5419C32.0162 21.5965 32.1469 21.651 32.2813 21.6984C33.3538 22.073 34.2852 22.7697 34.9485 23.6937C35.6119 24.6177 35.9751 25.7241 35.9887 26.8623C36.0141 30.5342 35.9887 34.2061 35.9887 37.8779C35.9887 38.3583 35.8507 38.4784 35.3206 38.4784C29.3364 38.4784 23.351 38.4784 17.3643 38.4784C17.2126 38.4551 17.0575 38.4806 16.9211 38.5513C16.7848 38.6219 16.6743 38.7339 16.6054 38.8714C16.4059 39.2209 16.1162 39.5101 15.7667 39.7086C15.4172 39.9071 15.0208 40.0076 14.6192 39.9995C10.5547 39.9995 6.49256 39.9995 2.43289 39.9995C1.84318 39.9935 1.27566 39.7733 0.835609 39.3798C0.395563 38.9863 0.112862 38.4462 0.0399433 37.8597C0.0140043 37.6753 0.00065868 37.4892 0 37.303C0 31.5167 0 25.7305 0 19.9443C0 18.263 1.02763 17.2404 2.70523 17.2331H4.76049L4.76775 17.2004ZM4.76775 18.0993H2.76333C1.54325 18.0993 0.925951 18.7106 0.925951 19.9188V37.2338C0.925951 38.4529 1.54325 39.0534 2.76696 39.0534H14.2343C15.5015 39.0534 16.0862 38.4893 16.1406 37.2338C16.1406 37.1137 16.1406 36.9936 16.1406 36.8699V22.3498C16.1406 21.4836 16.1406 20.6212 16.1406 19.7551C16.1406 18.8889 15.6214 18.1939 14.7753 18.1102C13.9292 18.0265 13.1413 18.092 12.2807 18.092C12.2807 18.6378 12.2807 19.1546 12.2807 19.6677C12.2807 20.1153 12.15 20.2609 11.7215 20.2645C9.59602 20.2645 7.47298 20.2645 5.35237 20.2645C4.92752 20.2645 4.77864 20.1008 4.77501 19.6786C4.76048 19.1873 4.76775 18.6706 4.76775 18.0993ZM19.3506 21.3381C19.3506 20.6284 19.3506 19.9552 19.3506 19.2783C19.3339 19.1609 19.2834 19.0509 19.2054 18.9617C18.5741 18.0708 18.134 17.0585 17.9126 15.9886C17.4007 13.6013 17.6839 11.2577 18.2758 8.92499C18.2856 8.83991 18.3123 8.75767 18.3544 8.68313C18.3965 8.60858 18.453 8.54325 18.5207 8.491C18.5884 8.43875 18.6659 8.40064 18.7486 8.37892C18.8313 8.3572 18.9174 8.35232 19.002 8.36457C22.0014 8.36457 25.0007 8.36457 28.0001 8.36457C28.0842 8.35177 28.17 8.35603 28.2524 8.37709C28.3349 8.39815 28.4122 8.43558 28.48 8.48717C28.5477 8.53875 28.6044 8.60344 28.6467 8.6774C28.689 8.75136 28.7161 8.83308 28.7263 8.91772C29.0851 10.2941 29.2897 11.7064 29.3364 13.1282C29.3654 15.2462 29.0168 17.2586 27.7386 19.02C27.6935 19.0677 27.6621 19.1268 27.6479 19.191C27.6479 19.9188 27.6479 20.6139 27.6479 21.3417H30.9922C31.0467 21.0069 31.1229 20.6685 31.1483 20.33C31.2972 18.434 31.4497 16.5381 31.5732 14.6421C31.7632 12.2509 31.5171 9.84496 30.8469 7.54212C30.3313 5.64467 29.2917 3.93165 27.8476 2.60018C26.7175 1.5597 25.251 0.96231 23.7171 0.917528C22.1831 0.872745 20.6845 1.38357 19.4958 2.35636C17.7928 3.6992 16.8233 5.5224 16.1878 7.5494C15.1965 10.7191 15.3527 13.9579 15.6032 17.2004C15.6087 17.2567 15.6257 17.3114 15.6532 17.3608C15.6806 17.4103 15.718 17.4536 15.763 17.4879C16.7652 18.0811 17.1356 18.9799 17.0775 20.1117C17.0557 20.5156 17.0775 20.9232 17.0775 21.3381H19.3506ZM30.6545 37.5504V28.9075C30.6545 28.7874 30.6109 28.6345 30.6545 28.5436C30.7707 28.3762 30.9196 28.1796 31.0902 28.1214C31.3299 28.0632 31.5078 28.2561 31.5369 28.5217C31.546 28.6538 31.546 28.7863 31.5369 28.9184C31.5369 31.6587 31.5369 34.3953 31.5369 37.1356C31.5369 37.4594 31.6204 37.5722 31.9581 37.565C32.8731 37.5431 33.7737 37.565 34.7033 37.565C34.8195 37.565 34.932 37.5468 35.0664 37.5395C35.0664 37.3939 35.0664 37.2775 35.0664 37.1574C35.0664 33.7948 35.0664 30.4311 35.0664 27.0661C35.0771 26.4322 34.9607 25.8027 34.724 25.2148C34.4872 24.627 34.135 24.0928 33.6882 23.6441C33.2415 23.1953 32.7093 22.8411 32.1232 22.6025C31.5372 22.3639 30.9093 22.2458 30.2768 22.2551C30.1488 22.2422 30.0198 22.267 29.9056 22.3264C29.7915 22.3859 29.6971 22.4775 29.6341 22.5899C28.4903 24.3185 27.332 26.0326 26.1736 27.7502C25.8577 28.2233 25.6217 28.2451 25.2222 27.8594C25.1278 27.7684 25.0298 27.6811 24.9172 27.5792C24.7894 27.7342 24.6934 27.9131 24.6348 28.1054C24.5762 28.2978 24.5562 28.4999 24.5759 28.7C24.8809 30.9781 25.1569 33.2599 25.4437 35.5416C25.5272 36.2076 25.6144 36.8735 25.7052 37.565H30.6182L30.6545 37.5504ZM23.4684 9.28527C22.1285 9.28527 20.7885 9.28527 19.4486 9.28527C19.2271 9.28527 19.0855 9.31802 19.0274 9.5764C18.6688 11.0364 18.5112 12.5388 18.559 14.0416C18.6534 15.7993 19.0601 17.4442 20.2511 18.8307C20.6049 19.2594 21.0405 19.6131 21.5323 19.8712C22.0241 20.1292 22.5623 20.2864 23.1155 20.3335C23.6686 20.3806 24.2256 20.3167 24.7538 20.1455C25.282 19.9743 25.7708 19.6993 26.1918 19.3366C27.2005 18.4555 27.8889 17.2639 28.149 15.9485C28.6464 13.7832 28.414 11.6398 27.9057 9.51453C27.8803 9.41628 27.6588 9.29983 27.5426 9.29983C26.1772 9.28163 24.8228 9.28527 23.4684 9.28527ZM22.1357 27.5792H21.9868L21.8416 27.7138C21.2715 28.2633 21.1154 28.2488 20.6832 27.601L17.3462 22.6373C17.2699 22.5208 17.1864 22.4116 17.0593 22.2333V37.5177H21.2207C21.2207 37.4412 21.2533 37.3794 21.2606 37.3139C21.6237 34.4026 22.005 31.4913 22.35 28.58C22.3313 28.2372 22.259 27.8995 22.1357 27.5792ZM5.69007 19.3475H11.3475V15.923H10.6902C10.0765 15.923 9.96398 15.7957 9.96398 15.1697V13.5904H7.09534C7.09534 14.1981 7.09534 14.7767 7.09534 15.359C7.09534 15.7556 6.9392 15.9085 6.5434 15.923C6.26743 15.923 5.99509 15.923 5.7046 15.923L5.69007 19.3475ZM20.2729 20.1335C20.2729 20.5484 20.2729 20.8941 20.2729 21.2253C20.2619 21.3493 20.2813 21.4741 20.3294 21.5889C20.3775 21.7037 20.4528 21.805 20.5489 21.8839C21.0209 22.3316 21.4712 22.801 21.9324 23.2632L23.4865 24.828C24.4379 23.8745 25.3203 22.9175 26.2862 22.0513C26.9325 21.4691 26.6493 20.8213 26.7001 20.119C24.5323 21.6292 22.4371 21.6292 20.2729 20.1335ZM24.8192 37.5249C24.456 34.5336 24.0748 31.5859 23.708 28.6527C23.3667 28.5326 23.2614 28.6345 23.2214 28.9584C23.0072 30.778 22.7675 32.5976 22.5388 34.4171C22.4081 35.4434 22.2882 36.4696 22.1757 37.5249H24.8192ZM25.6434 26.9715L28.8026 22.2624C28.3995 22.2624 28.0763 22.2806 27.775 22.2624C27.6386 22.2504 27.5013 22.2716 27.3749 22.3242C27.2484 22.3768 27.1365 22.4592 27.0487 22.5645C26.2535 23.3833 25.4437 24.1875 24.6303 24.9918C24.4595 25.1495 24.2801 25.2977 24.0929 25.4357H24.2672L25.6434 26.9715ZM21.3296 26.9715L22.8111 25.4612C21.9142 24.5623 20.9628 23.7108 20.1349 22.7501C19.5539 22.0768 18.9003 22.3316 18.1632 22.2588C19.2489 23.8564 20.2729 25.3812 21.3296 26.9496V26.9715ZM23.4502 26.109C23.2541 26.3237 23.0871 26.4911 22.9418 26.6803C22.8656 26.7822 22.7567 26.9569 22.793 27.0442C22.8985 27.2996 23.0672 27.5238 23.2832 27.6956C23.3896 27.7233 23.5011 27.7252 23.6085 27.7011C23.7158 27.6771 23.8159 27.6278 23.9005 27.5574C24.0473 27.3846 24.1606 27.1859 24.2345 26.9715L23.4502 26.109Z" fill="white"/>
<path d="M8.50449 24.4205H13.8714C14.0147 24.3995 14.161 24.4158 14.2962 24.4678C14.383 24.4953 14.4588 24.5498 14.5126 24.6234C14.5664 24.697 14.5954 24.7859 14.5954 24.8772C14.5954 24.9684 14.5664 25.0573 14.5126 25.1309C14.4588 25.2045 14.383 25.259 14.2962 25.2866C14.1618 25.3418 14.015 25.3594 13.8714 25.3375H3.1739C3.04318 25.3375 2.87615 25.3666 2.789 25.3011C2.64738 25.1992 2.46582 25.0246 2.46582 24.879C2.46582 24.7334 2.64375 24.5587 2.78537 24.4532C2.92698 24.3477 3.04318 24.4205 3.1739 24.4205H8.50449Z" fill="white"/>
<path d="M8.5443 22.0148H13.8713C14.002 22.0148 14.169 21.982 14.2598 22.0475C14.3506 22.113 14.5902 22.3277 14.5902 22.4733C14.5902 22.6189 14.4087 22.7972 14.2598 22.8955C14.1239 22.9448 13.9777 22.9586 13.8349 22.9355H3.17741C2.65089 22.9355 2.45117 22.8045 2.45117 22.477C2.45117 22.1494 2.65815 22.0148 3.17741 22.0148H8.5443Z" fill="white"/>
<path d="M8.55134 37.3354H3.22076C3.10093 37.3354 2.9811 37.3354 2.85764 37.3354C2.80062 37.336 2.74408 37.3248 2.69151 37.3027C2.63895 37.2805 2.59146 37.2478 2.552 37.2065C2.51253 37.1653 2.48192 37.1164 2.46204 37.0628C2.44216 37.0092 2.43345 36.9521 2.43642 36.8951C2.43137 36.8381 2.43824 36.7807 2.45658 36.7265C2.47493 36.6723 2.50435 36.6226 2.54297 36.5805C2.58159 36.5383 2.62855 36.5047 2.68086 36.4818C2.73317 36.4589 2.78967 36.4472 2.84675 36.4475C2.95198 36.442 3.05743 36.442 3.16266 36.4475H14.1397C14.2015 36.4419 14.2638 36.4492 14.3226 36.4691C14.3814 36.4889 14.4354 36.5208 14.4812 36.5628C14.527 36.6047 14.5636 36.6558 14.5886 36.7127C14.6137 36.7696 14.6266 36.8311 14.6266 36.8932C14.6266 36.9554 14.6137 37.0169 14.5886 37.0738C14.5636 37.1307 14.527 37.1818 14.4812 37.2237C14.4354 37.2656 14.3814 37.2976 14.3226 37.3174C14.2638 37.3373 14.2015 37.3446 14.1397 37.339C13.9691 37.339 13.7984 37.339 13.6241 37.339L8.55134 37.3354Z" fill="white"/>
<path d="M10.9662 27.743H7.98136C7.67271 27.743 7.41853 27.6629 7.38222 27.3026C7.35317 27.0042 7.57104 26.8259 7.97047 26.8223C8.80927 26.8223 9.64445 26.8223 10.4796 26.8223C11.6452 26.8223 12.8145 26.8223 13.9801 26.8223C14.1843 26.8258 14.3793 26.9078 14.5248 27.0515C14.7681 27.3536 14.4921 27.7284 14.0273 27.732C13.0178 27.7466 11.9975 27.743 10.9662 27.743Z" fill="white"/>
<path d="M11.0061 30.1412H8.06122C7.73441 30.1412 7.42939 30.1084 7.39308 29.6936C7.36766 29.3879 7.58916 29.2241 8.03217 29.2241H14.0817C14.3867 29.2241 14.6155 29.3624 14.6119 29.6863C14.6082 30.0102 14.3758 30.1412 14.0672 30.1412H11.0061Z" fill="white"/>
<path d="M10.9663 32.5466H8.14489C8.05048 32.5466 7.95607 32.5466 7.86529 32.5466C7.57117 32.5284 7.38234 32.3865 7.38961 32.0772C7.39687 31.7678 7.58206 31.655 7.85803 31.6514C8.28288 31.6514 8.70773 31.6514 9.13258 31.6514H14.0637C14.376 31.6514 14.6048 31.7715 14.6048 32.0953C14.6048 32.4192 14.3796 32.5539 14.071 32.5539H10.9663V32.5466Z" fill="white"/>
<path d="M11.0171 34.0391H14.0019C14.4086 34.0391 14.6446 34.2065 14.6156 34.4903C14.5793 34.8542 14.3178 34.9416 13.9874 34.9416C11.9866 34.9416 9.99307 34.9416 7.98139 34.9416C7.5747 34.9416 7.3423 34.7378 7.39677 34.4284C7.45124 34.1191 7.67274 34.0427 7.95597 34.0463C8.97634 34.0427 9.9967 34.0391 11.0171 34.0391Z" fill="white"/>
<path d="M3.61302 33.8935L5.42862 32.0267C5.52303 31.932 5.60654 31.7865 5.71548 31.7646C5.91156 31.7246 6.19843 31.6846 6.30373 31.7901C6.35695 31.877 6.38721 31.9761 6.39166 32.0779C6.3961 32.1798 6.37459 32.2811 6.32915 32.3724C6.12923 32.6385 5.9016 32.8824 5.65012 33.1002C5.11997 33.6339 4.58618 34.1677 4.04876 34.7014C3.68564 35.0399 3.5295 35.0362 3.18091 34.7014C2.98119 34.5049 2.78511 34.3084 2.59266 34.1082C2.54696 34.067 2.51018 34.0167 2.4846 33.9606C2.45902 33.9046 2.44518 33.8438 2.44394 33.7822C2.4427 33.7205 2.45407 33.6593 2.47737 33.6022C2.50066 33.5451 2.53538 33.4934 2.57939 33.4503C2.62339 33.4072 2.67574 33.3736 2.7332 33.3516C2.79067 33.3296 2.85203 33.3196 2.9135 33.3222C2.97497 33.3249 3.03525 33.3401 3.09061 33.367C3.14597 33.3939 3.19524 33.4319 3.23538 33.4787C3.36247 33.5806 3.46414 33.7189 3.61302 33.8935Z" fill="white"/>
<path d="M3.64236 29.046C4.28872 28.3873 4.92417 27.7322 5.57779 27.0917C5.70306 26.9619 5.86783 26.8774 6.04621 26.8516C6.16604 26.8516 6.40933 26.9898 6.40933 27.0881C6.43944 27.2865 6.39125 27.4888 6.27498 27.6522C5.69035 28.2817 5.06942 28.8822 4.45938 29.4717C3.62784 30.3051 3.62784 30.3051 2.79993 29.4717C2.41502 29.086 2.34603 28.824 2.57116 28.5983C2.7963 28.3727 3.02506 28.4237 3.43902 28.8312C3.48985 28.9077 3.55158 28.9586 3.64236 29.046Z" fill="white"/>
</svg>
