<svg width="37" height="40" viewBox="0 0 37 40" fill="none" xmlns="http://www.w3.org/2000/svg">
<path d="M4.7722 17.1882C4.7722 16.6155 4.7722 16.1126 4.7722 15.606C4.7722 15.0994 4.93002 14.993 5.3998 14.982C5.64937 14.982 5.89894 14.982 6.19255 14.982V13.319C6.19255 12.7867 6.32468 12.6509 6.84217 12.6509C7.98481 12.6509 9.12867 12.6509 10.2738 12.6509C10.7435 12.6509 10.8867 12.7977 10.8903 13.2713C10.8903 13.8293 10.8903 14.3726 10.8903 14.982C11.1803 14.982 11.4299 14.982 11.6794 14.982C12.1492 14.982 12.3034 15.1398 12.3107 15.606C12.318 16.0722 12.3107 16.6119 12.3107 17.1809H12.8429C13.4558 17.1809 14.065 17.1809 14.6779 17.1809C15.3031 17.1984 15.8979 17.4547 16.3402 17.8971C16.7824 18.3394 17.0386 18.9343 17.0562 19.5597C17.0782 20.0626 17.0562 20.5655 17.0562 21.1051H19.5446C19.5446 20.2792 19.5446 19.4715 19.5446 18.6676C19.5446 18.5942 19.4565 18.5134 19.3941 18.451C17.9664 17.0524 17.2911 15.3087 17.0746 13.3667C17.0187 12.7129 16.8275 12.0778 16.513 11.5019C15.8566 10.432 15.5304 9.19216 15.5755 7.9377C15.6205 6.68323 16.0348 5.46997 16.7663 4.44997C17.5638 3.17893 18.6512 2.11503 19.9392 1.34549C21.2273 0.575944 22.6793 0.122659 24.1763 0.0227889C26.8996 -0.204811 29.0062 1.2856 29.8283 3.903C29.9164 4.16027 30.0606 4.39474 30.2504 4.58946C30.7557 5.09781 31.1284 5.72254 31.3358 6.40873C31.5431 7.09492 31.5788 7.82155 31.4395 8.52474C31.2495 9.5807 30.9696 10.6185 30.6027 11.6267C30.4242 12.108 30.3011 12.608 30.2357 13.1171C30.0412 15.2646 29.3182 17.1772 27.6666 18.6639C27.5875 18.731 27.5365 18.8253 27.5235 18.9282C27.5235 19.6441 27.5235 20.3599 27.5235 21.1308C28.096 21.1308 28.6245 21.1308 29.153 21.1308C30.9929 21.0988 32.7835 21.7263 34.2012 22.8998C35.6188 24.0734 36.5698 25.7155 36.8824 27.5293C36.9637 28.0009 37.003 28.4788 36.9998 28.9573C36.9998 31.8941 36.9998 34.8125 36.9998 37.7383C36.9998 38.3476 36.8897 38.4725 36.2658 38.4725C29.9311 38.4725 23.5976 38.4725 17.2654 38.4725C17.1447 38.4617 17.0235 38.4879 16.918 38.5475C16.8125 38.6072 16.7276 38.6975 16.6745 38.8065C16.468 39.1751 16.1654 39.4807 15.7989 39.6908C15.4325 39.901 15.0159 40.0077 14.5935 39.9996C10.549 39.9996 6.50451 39.9996 2.46 39.9996C1.81981 40.0007 1.20456 39.7514 0.745751 39.3048C0.286938 38.8583 0.0209636 38.2499 0.00467237 37.6098C0.00467237 37.4923 0.00467237 37.3712 0.00467237 37.2427C0.00467237 31.4842 0.00467237 25.7232 0.00467237 19.9598C-0.0170158 19.5932 0.0369609 19.2261 0.163242 18.8812C0.289524 18.5364 0.485407 18.2213 0.738703 17.9554C0.954468 17.7274 1.21373 17.545 1.50119 17.4189C1.78864 17.2928 2.09844 17.2256 2.41229 17.2212C3.17201 17.1845 3.94275 17.1882 4.7722 17.1882ZM4.7722 18.0839H2.76463C1.54247 18.0839 0.92955 18.7006 0.92955 19.9194V37.2353C0.92955 38.4468 1.56082 39.0708 2.76463 39.0708H14.2155C15.5698 39.0708 16.1644 38.4798 16.1644 37.1326V25.9985C16.1644 23.9257 16.1644 21.8454 16.1644 19.7579C16.1644 18.8915 15.6615 18.1941 14.8504 18.1133C14.0393 18.0325 13.1842 18.0949 12.3107 18.0949C12.3107 18.6162 12.3107 19.1191 12.3107 19.6221C12.3107 20.125 12.1712 20.2535 11.7015 20.2535H5.39613C4.91901 20.2535 4.77587 20.1066 4.7722 19.6367C4.76853 19.1669 4.7722 18.6419 4.7722 18.0839ZM31.7809 37.5107H36.0786C36.09 37.4377 36.0973 37.3642 36.1006 37.2904C36.1006 34.4417 36.1667 31.5931 36.0823 28.7481C35.9979 25.8113 34.5151 23.7189 31.8139 22.5074C31.568 22.3973 31.3037 22.3349 31.0101 22.2358C30.9294 23.0361 30.8413 23.7739 30.7789 24.5118C30.7459 24.8789 30.5954 25.0955 30.1954 25.1248C29.52 25.1799 28.8484 25.279 28.1731 25.3267C27.9125 25.3267 27.7767 25.4148 27.7767 25.6938C27.7722 25.8168 27.7599 25.9395 27.74 26.0609C27.6079 26.953 27.5969 27.8964 27.318 28.726C26.3821 31.5196 25.3544 34.2839 24.3598 37.0591C24.3084 37.206 24.2644 37.3528 24.2057 37.5253H30.8633V36.1194C30.8633 33.7234 30.8633 31.3288 30.8633 28.9353C30.8633 28.5388 31.0468 28.3002 31.3331 28.3296C31.7001 28.3663 31.7809 28.6159 31.7772 28.9279C31.7772 29.0344 31.7772 29.1409 31.7772 29.2473V37.518L31.7809 37.5107ZM28.0813 7.16648L27.6409 7.38674C26.3857 8.01447 25.0718 8.36689 23.6698 8.09891C22.5688 7.88232 21.5044 7.4932 20.4217 7.18851C20.106 7.08812 19.7834 7.01082 19.4565 6.95724C19.2143 6.92053 19.0381 7.01597 19.0307 7.32433C18.9737 8.92904 18.6255 10.51 18.0031 11.9901C17.9353 12.1328 17.8967 12.2875 17.8893 12.4453C17.9591 14.0826 18.3114 15.6464 19.306 16.9826C20.6089 18.73 22.3449 19.6 24.5433 19.1852C26.5839 18.8181 27.9052 17.5076 28.6943 15.6501C29.5678 13.598 29.5164 11.4799 29.0429 9.34703C28.9039 8.55294 28.5739 7.80458 28.0813 7.16648ZM30.1623 10.2171C30.5398 9.20134 30.6657 8.10931 30.5293 7.03433C30.4365 6.29943 30.0694 5.62676 29.5017 5.15112C29.256 4.95164 29.0852 4.67469 29.0172 4.36554C28.408 2.08954 26.7821 0.8304 24.4295 0.922174C21.7246 1.02496 19.5849 2.29511 17.9224 4.37655C17.3687 5.01903 16.9619 5.77469 16.7305 6.59073C16.4992 7.40678 16.4487 8.26351 16.5828 9.10108C16.6967 9.83407 16.9562 10.5368 17.3461 11.1678C17.8228 9.90346 18.0857 8.56858 18.1242 7.21788C18.1101 6.95182 18.1973 6.6903 18.3682 6.48595C18.5391 6.28161 18.7811 6.14963 19.0454 6.11659C19.4127 6.05847 19.7881 6.07975 20.1465 6.17899C20.8511 6.37355 21.5301 6.64521 22.2201 6.88015C23.0937 7.2104 24.0305 7.33934 24.9608 7.25735C25.891 7.17536 26.7908 6.88456 27.5932 6.40659C28.1878 6.06152 28.3676 6.09456 28.8154 6.61951C29.3607 7.31286 29.7376 8.1234 29.9164 8.98728C29.9898 9.3507 30.0596 9.73983 30.1623 10.2171ZM17.1039 25.1615V37.5107H22.8771C22.822 37.3491 22.778 37.2243 22.7339 37.1032C21.754 34.3536 20.7631 31.5967 19.7978 28.8545C19.6655 28.4522 19.5733 28.0379 19.5225 27.6174C19.4198 26.8832 19.35 26.149 19.262 25.3745L17.1039 25.1615ZM17.0379 22.0155C17.0819 22.713 17.1223 23.2967 17.1443 23.8767C17.1443 24.1704 17.2801 24.2842 17.5774 24.3062C18.2417 24.3466 18.9023 24.431 19.5629 24.4861C19.6431 24.4828 19.7231 24.4965 19.7977 24.5261C19.8723 24.5558 19.9398 24.6008 19.9959 24.6583C20.052 24.7158 20.0953 24.7844 20.1232 24.8597C20.151 24.935 20.1627 25.0153 20.1575 25.0955C20.1575 25.4002 20.2015 25.7085 20.2456 26.0095C20.3143 26.8679 20.4555 27.7189 20.6676 28.5535C21.5228 31.1232 22.4697 33.6635 23.3836 36.2111C23.4239 36.3249 23.4826 36.4351 23.556 36.6039C24.5433 33.8324 25.5122 31.1342 26.4701 28.4324C26.5493 28.2216 26.6035 28.0023 26.6316 27.7789C26.7344 26.9346 26.8188 26.0866 26.9216 25.2423C27.0023 24.5668 27.0647 24.5265 27.7694 24.4677C28.4741 24.409 29.1677 24.3282 29.8871 24.2548C29.9605 23.5206 30.0339 22.8085 30.1146 22.0119C29.3806 22.0119 28.6796 22.0449 27.9933 22.0119C27.9026 21.9943 27.8094 21.9948 27.719 22.0134C27.6286 22.0319 27.5427 22.0682 27.4663 22.12C27.3899 22.1719 27.3245 22.2383 27.2739 22.3155C27.2232 22.3927 27.1883 22.4791 27.1711 22.5698C26.1435 25.3329 25.0926 28.0873 24.0185 30.8332C23.9737 30.9352 23.9082 31.0268 23.826 31.102C23.7439 31.1772 23.6469 31.2344 23.5414 31.27C23.2661 31.3471 23.1413 31.0828 23.0532 30.8479L22.6312 29.7466C21.6965 27.287 20.7582 24.8299 19.8162 22.3753C19.7648 22.2468 19.6363 22.0596 19.5372 22.0559C18.7298 22.0045 17.9224 22.0155 17.0379 22.0155ZM23.5414 29.5594C24.4809 27.1035 25.3397 24.732 26.2976 22.3973C26.6977 21.4245 26.5803 20.4554 26.628 19.4128C25.6832 19.9399 24.6163 20.2089 23.5346 20.1928C22.4529 20.1767 21.3945 19.876 20.4658 19.321C20.4658 19.8093 20.4841 20.2204 20.4658 20.6316C20.4405 21.2014 20.5434 21.7697 20.7667 22.2945C21.3319 23.7152 21.8678 25.1469 22.4036 26.5749C22.767 27.5403 23.1376 28.5095 23.5414 29.5594ZM5.72277 15.9034V19.3321H11.3711V15.9511C11.3271 15.9291 11.3051 15.9107 11.2794 15.9107H10.6041C10.1306 15.9107 9.98382 15.7639 9.97648 15.2903C9.96914 14.8168 9.97648 14.3322 9.97648 13.855C9.97648 13.7559 9.86637 13.5723 9.80765 13.5723C8.92315 13.5723 8.03864 13.5723 7.11009 13.5723C7.11009 14.178 7.11009 14.7323 7.11009 15.2867C7.11009 15.7859 6.96695 15.9144 6.46047 15.9217L5.72277 15.9034Z" fill="white"/>
<path d="M8.53406 25.3272H3.20132C3.05819 25.3272 2.87835 25.3565 2.77559 25.2831C2.69756 25.2351 2.62983 25.172 2.57628 25.0976C2.52274 25.0233 2.48445 24.939 2.46362 24.8497C2.46362 24.7212 2.62878 24.5486 2.76458 24.4495C2.88822 24.401 3.02267 24.3871 3.15361 24.4091H13.9218C14.0393 24.4091 14.1971 24.376 14.2705 24.4384C14.421 24.5596 14.6082 24.7286 14.6375 24.8901C14.6669 25.0517 14.4467 25.1986 14.2999 25.3014C14.1737 25.3449 14.0388 25.3563 13.9072 25.3345L8.53406 25.3272Z" fill="white"/>
<path d="M8.53409 22.9155H3.20136C3.06923 22.9155 2.90775 22.9523 2.81232 22.8898C2.7169 22.8274 2.44531 22.6181 2.46733 22.4859C2.48935 22.3536 2.65818 22.1517 2.80498 22.0268C2.87839 21.968 3.0362 22.0048 3.172 22.0048H13.9402C14.0467 22.0048 14.1861 21.9644 14.2522 22.0048C14.41 22.1333 14.6192 22.2949 14.6376 22.4638C14.6559 22.6328 14.4173 22.776 14.2705 22.8788C14.1751 22.9412 14.0136 22.9008 13.8778 22.9008L8.53409 22.9155Z" fill="white"/>
<path d="M8.50096 37.3197H3.19759C3.07545 37.3295 2.95272 37.3295 2.83057 37.3197C2.56999 37.2793 2.38281 37.1104 2.46356 36.8607C2.50393 36.6991 2.70212 36.5559 2.85626 36.4457C2.926 36.3943 3.06179 36.4457 3.16823 36.4457H13.9328C14.0392 36.4457 14.175 36.409 14.2448 36.4457C14.3989 36.5595 14.6375 36.7285 14.6118 36.857C14.5861 36.9855 14.3879 37.1912 14.2264 37.3124C14.153 37.3711 13.9952 37.3124 13.8777 37.3124L8.50096 37.3197Z" fill="white"/>
<path d="M11.0262 27.7278H8.11578C7.98365 27.7278 7.81483 27.7572 7.72674 27.6874C7.57534 27.5806 7.46726 27.4229 7.42212 27.2431C7.42212 27.1109 7.60195 26.9456 7.74142 26.8501C7.86594 26.8053 7.99976 26.7927 8.13046 26.8134H13.9146C14.0075 26.8079 14.1007 26.8079 14.1936 26.8134C14.4651 26.8428 14.6487 26.986 14.6413 27.2725C14.634 27.5589 14.4468 27.6948 14.1752 27.7205C14.0834 27.7205 13.9917 27.7205 13.8963 27.7205L11.0262 27.7278Z" fill="white"/>
<path d="M10.9785 30.1288H8.04234C7.7157 30.1288 7.44778 30.0517 7.41841 29.6734C7.39272 29.387 7.62761 29.2144 8.035 29.2144H14.0394C14.4431 29.2144 14.6743 29.3943 14.6449 29.6844C14.6119 30.0517 14.366 30.1288 14.0504 30.1288H10.9785Z" fill="white"/>
<path d="M11.0189 34.9266C10.0206 34.9266 9.026 34.9266 8.02772 34.9266C7.69741 34.9266 7.43315 34.8531 7.40379 34.4749C7.3781 34.1884 7.60932 34.0269 8.02038 34.0269H14.0394C14.4468 34.0269 14.6744 34.1958 14.645 34.4896C14.6156 34.7834 14.3661 34.9266 14.0468 34.9266C13.0375 34.9229 12.0282 34.9266 11.0189 34.9266Z" fill="white"/>
<path d="M11.0224 32.548C10.0241 32.548 9.02946 32.548 8.03118 32.548C7.70454 32.548 7.43662 32.4708 7.40359 32.0963C7.37422 31.8098 7.60911 31.6372 8.0165 31.6372H14.0392C14.4466 31.6372 14.6778 31.8098 14.6485 32.0999C14.6118 32.4672 14.3402 32.548 14.0172 32.548C13.0153 32.5259 12.017 32.548 11.0224 32.548Z" fill="white"/>
<path d="M3.5756 29.108L5.47674 27.1807C5.55816 27.0932 5.64521 27.011 5.73732 26.9348C5.77817 26.8951 5.82664 26.8641 5.8798 26.8436C5.93297 26.8231 5.98972 26.8136 6.04664 26.8157C6.10356 26.8178 6.15948 26.8313 6.21103 26.8556C6.26257 26.8798 6.30868 26.9143 6.34656 26.9568C6.38909 26.9953 6.42308 27.0424 6.44634 27.0948C6.46961 27.1473 6.48163 27.2041 6.48163 27.2615C6.48163 27.3189 6.46961 27.3757 6.44634 27.4281C6.42308 27.4806 6.38909 27.5276 6.34656 27.5662C6.11534 27.8231 5.86577 28.0581 5.61253 28.3004C5.09871 28.818 4.58489 29.3356 4.06373 29.8495C3.69671 30.2166 3.5132 30.2166 3.13151 29.8495C2.94433 29.6623 2.76449 29.4824 2.56997 29.2842C2.52075 29.2435 2.48112 29.1925 2.45391 29.1348C2.42671 29.077 2.4126 29.014 2.4126 28.9501C2.4126 28.8863 2.42671 28.8232 2.45391 28.7655C2.48112 28.7077 2.52075 28.6567 2.56997 28.6161C2.61281 28.5686 2.66579 28.5314 2.72497 28.5072C2.78415 28.483 2.84802 28.4725 2.91184 28.4763C2.97566 28.4802 3.03778 28.4984 3.0936 28.5296C3.14942 28.5608 3.1975 28.6041 3.23427 28.6565C3.35815 28.799 3.47219 28.9499 3.5756 29.108Z" fill="white"/>
<path d="M3.61234 33.869L5.44742 32.0335C5.53183 31.9491 5.61625 31.8646 5.70433 31.7839C5.74496 31.7346 5.79597 31.695 5.85371 31.6678C5.91145 31.6406 5.97449 31.6265 6.03831 31.6265C6.10214 31.6265 6.16518 31.6406 6.22292 31.6678C6.28065 31.695 6.33167 31.7346 6.3723 31.7839C6.4168 31.8251 6.45192 31.8754 6.47524 31.9313C6.49857 31.9873 6.50956 32.0477 6.50747 32.1083C6.50538 32.1689 6.49026 32.2284 6.46313 32.2826C6.43601 32.3368 6.39752 32.3846 6.35028 32.4226C6.05667 32.731 5.75204 33.0247 5.45109 33.3257C4.98131 33.7956 4.51887 34.2691 4.04175 34.7317C3.75181 35.018 3.54995 35.0143 3.25634 34.7317C3.03246 34.5224 2.81959 34.3022 2.60672 34.0856C2.55943 34.0474 2.52078 33.9996 2.49333 33.9454C2.46587 33.8911 2.45024 33.8317 2.44747 33.771C2.44469 33.7102 2.45483 33.6496 2.47723 33.5931C2.49962 33.5366 2.53375 33.4855 2.57736 33.4432C2.61725 33.3934 2.66781 33.3532 2.7253 33.3256C2.78279 33.298 2.84574 33.2837 2.90951 33.2837C2.97328 33.2837 3.03623 33.298 3.09372 33.3256C3.15121 33.3532 3.20177 33.3934 3.24166 33.4432C3.34809 33.5533 3.45452 33.6928 3.61234 33.869Z" fill="white"/>
</svg>
