<svg width="16" height="2" viewBox="0 0 16 2" fill="none" xmlns="http://www.w3.org/2000/svg">
<path fill-rule="evenodd" clip-rule="evenodd" d="M15.1556 0H0.844365C0.733482 0 0.623684 0.0258653 0.521241 0.07612C0.418798 0.126375 0.325715 0.200034 0.247309 0.292893C0.168902 0.385751 0.106707 0.495992 0.0642732 0.617317C0.0218399 0.738643 0 0.868678 0 1C0 1.13132 0.0218399 1.26136 0.0642732 1.38268C0.106707 1.50401 0.168903 1.61425 0.247309 1.70711C0.325716 1.79997 0.418798 1.87363 0.521241 1.92388C0.623684 1.97414 0.733482 2 0.844365 2H15.1556C15.2665 2 15.3763 1.97414 15.4788 1.92388C15.5812 1.87363 15.6743 1.79997 15.7527 1.70711C15.8311 1.61425 15.8933 1.50401 15.9357 1.38268C15.9782 1.26136 16 1.13132 16 1C16 0.868678 15.9782 0.738643 15.9357 0.617317C15.8933 0.495992 15.8311 0.385751 15.7527 0.292893C15.6743 0.200034 15.5812 0.126375 15.4788 0.07612C15.3763 0.0258653 15.2665 0 15.1556 0Z" fill="white"/>
</svg>
