<svg width="40" height="40" viewBox="0 0 40 40" fill="none" xmlns="http://www.w3.org/2000/svg">
<path d="M16.4854 0C16.8489 0.0864586 17.2062 0.197253 17.5548 0.331638C18.2801 0.632205 18.9029 1.13659 19.3483 1.78392C19.7936 2.43124 20.0424 3.19383 20.0646 3.97965C20.0844 4.24828 20.0646 4.52022 20.0646 4.82533C20.697 4.82533 21.2929 4.80211 21.8856 4.82533C23.2531 4.90127 24.5922 5.24728 25.8257 5.84346C26.2793 6.05902 26.4349 6.35418 26.276 6.68913C26.117 7.02408 25.7727 7.11363 25.3357 6.90801C23.7042 6.13922 21.8947 5.82968 20.101 6.01259V17.1888H24.6536C25.1237 17.1888 25.382 17.3911 25.3919 17.7559C25.4019 18.1207 25.137 18.3595 24.6503 18.3595H20.101V19.424H21.3459C21.9717 19.424 22.5975 19.424 23.2199 19.424C23.3026 19.4132 23.3867 19.4201 23.4664 19.4444C23.5462 19.4687 23.6199 19.5097 23.6826 19.5648C23.7453 19.6199 23.7955 19.6878 23.8299 19.7639C23.8643 19.84 23.8821 19.9225 23.8821 20.006C23.8821 20.0896 23.8643 20.1721 23.8299 20.2482C23.7955 20.3243 23.7453 20.3922 23.6826 20.4473C23.6199 20.5023 23.5462 20.5434 23.4664 20.5677C23.3867 20.592 23.3026 20.5989 23.2199 20.5881C22.3193 20.5881 21.4221 20.5881 20.5248 20.5881H20.0944V21.6427C20.7764 21.6427 21.4486 21.6161 22.1207 21.6427C22.2378 21.6545 22.3512 21.69 22.4542 21.747C22.5572 21.804 22.6476 21.8813 22.72 21.9743C22.9782 22.3524 22.6604 22.7968 22.1538 22.8034C21.4916 22.8034 20.8029 22.8034 20.101 22.8034V29.1808C21.5644 29.141 23.0279 29.2073 24.4649 29.0349C26.1766 28.8293 27.5441 27.1877 27.5739 25.4665C27.5964 24.2361 28.0675 23.0566 28.8983 22.1501C30.1074 20.7319 30.8477 18.973 31.0173 17.1158C31.3881 13.5507 30.1929 10.5892 27.4911 8.23456C27.16 7.93609 27.0805 7.5945 27.3024 7.31924C27.5242 7.04398 27.895 7.04067 28.2593 7.35241C29.5261 8.39976 30.5431 9.71765 31.2357 11.2096C31.9283 12.7015 32.2791 14.3297 32.2622 15.975C32.2622 16.2867 32.3384 16.4326 32.643 16.5288C33.4244 16.7742 34.1958 17.0561 34.9607 17.3314C35.5269 17.5304 35.805 17.8421 35.7454 18.4391C35.6729 18.8972 35.7164 19.3663 35.872 19.8032C36.0277 20.2401 36.2904 20.6309 36.636 20.9396C36.8872 21.2389 37.242 21.432 37.6293 21.4802C37.9406 21.5101 38.2501 21.5566 38.5564 21.6195C38.7794 21.6414 38.9883 21.7382 39.1494 21.8942C39.3105 22.0501 39.4142 22.256 39.4438 22.4784C39.6292 23.4103 39.8047 24.3455 39.9768 25.2807C40.0253 25.4929 40.003 25.7152 39.9133 25.9135C39.8236 26.1118 39.6715 26.2751 39.4802 26.3785C39.1027 26.6106 38.7054 26.8096 38.3379 27.0417C38.2001 27.1464 38.0946 27.2877 38.0333 27.4496C37.9409 27.774 37.8303 28.0929 37.7022 28.4048C37.5956 28.582 37.5393 28.7849 37.5393 28.9918C37.5393 29.1986 37.5956 29.4016 37.7022 29.5788C37.8296 29.8627 37.9401 30.154 38.0333 30.451C38.1199 30.6437 38.1413 30.8595 38.0941 31.0654C38.0468 31.2714 37.9336 31.4563 37.7717 31.5918C37.0334 32.2551 36.2818 32.8951 35.5269 33.5319C35.3725 33.6669 35.1793 33.7492 34.9752 33.7671C34.7711 33.785 34.5666 33.7375 34.3912 33.6314C33.9111 33.3727 33.4608 32.9681 32.9542 32.8786C32.4476 32.789 31.9113 33.0278 31.3948 33.1505C31.2253 33.1944 31.0715 33.2852 30.9511 33.4125C30.673 33.7209 30.4313 34.0758 30.1664 34.3842C30.0303 34.5794 29.8311 34.7216 29.6026 34.7868C29.374 34.8521 29.1299 34.8364 28.9115 34.7424C28.0275 34.4406 27.1434 34.1255 26.2627 33.8171C26.2138 33.7995 26.1663 33.7784 26.1204 33.7541C25.6105 33.4954 25.6105 33.4954 24.9582 33.6214C24.9582 33.7541 24.9582 33.8934 24.9383 34.036C24.9407 34.3797 24.8739 34.7203 24.7419 35.0375C24.6098 35.3548 24.4153 35.6421 24.1699 35.8823C23.9245 36.1226 23.6333 36.3108 23.3136 36.4357C22.9939 36.5606 22.6524 36.6197 22.3094 36.6095C21.6472 36.6095 20.9552 36.6095 20.2765 36.6095C20.0844 36.6095 19.9454 36.6426 19.9156 36.8582C19.7087 37.7426 19.2123 38.5323 18.5055 39.1015C17.7987 39.6706 16.9221 39.9865 16.0152 39.9988C14.1379 40.0419 12.6148 38.9044 11.9626 36.9942C11.9626 36.9477 11.9229 36.9013 11.9295 36.9146C11.3368 36.8416 10.7806 36.8018 10.2376 36.6957C9.77402 36.6062 9.57537 36.2845 9.6747 35.923C9.77403 35.5615 10.0786 35.4919 10.5356 35.5516C11.032 35.6277 11.5363 35.6377 12.0354 35.5814C12.6976 35.4919 12.9195 35.598 13.0287 36.2712C13.108 37.0266 13.4753 37.7221 14.054 38.2129C14.6327 38.7038 15.3781 38.9519 16.135 38.9058C16.8919 38.8596 17.6018 38.5226 18.1167 37.9651C18.6317 37.4075 18.9119 36.6725 18.8991 35.913C18.8991 33.8536 18.8991 31.7908 18.8991 29.7313V22.8565C18.1409 22.8565 17.4058 22.8565 16.6708 22.8565C16.5649 22.8565 16.4523 22.9858 16.3629 23.072C15.7669 23.659 15.1776 24.246 14.5915 24.843C14.445 25.0005 14.2669 25.1254 14.0689 25.2094C13.871 25.2934 13.6576 25.3347 13.4426 25.3305H11.254C10.7938 25.3305 10.5389 25.105 10.5389 24.7369C10.5389 24.3687 10.7905 24.1598 11.2607 24.1565C11.9229 24.1565 12.6182 24.1565 13.2936 24.1565C13.4932 24.145 13.6833 24.0667 13.8333 23.9343C14.4392 23.3606 15.0252 22.7669 15.608 22.17C15.7586 22.0072 15.9424 21.8788 16.1469 21.7935C16.3514 21.7083 16.5719 21.6681 16.7933 21.6758C17.482 21.6758 18.1674 21.6758 18.8759 21.6758V20.6245H7.83379C7.65169 20.6245 7.42654 20.661 7.30072 20.5715C7.10604 20.4423 6.96302 20.2486 6.89678 20.0243C6.88753 19.959 6.89177 19.8926 6.90924 19.829C6.9267 19.7655 6.95703 19.7062 6.99832 19.6549C7.03962 19.6036 7.091 19.5613 7.14929 19.5307C7.20757 19.5001 7.27152 19.4819 7.33714 19.4771C7.49166 19.4544 7.64799 19.4466 7.80399 19.4539H18.8759V18.4225C18.7828 18.4069 18.6888 18.3969 18.5945 18.3926C17.9952 18.3926 17.3959 18.3926 16.7966 18.3926C16.5754 18.4016 16.3548 18.3624 16.1501 18.2777C15.9455 18.1929 15.7616 18.0647 15.6113 17.9018C15.0286 17.3049 14.4425 16.7112 13.8399 16.1375C13.6882 16.0057 13.4974 15.9276 13.2969 15.9153C12.6082 15.8888 11.9162 15.9153 11.2275 15.9153C10.7905 15.9153 10.5455 15.6997 10.5422 15.3382C10.5389 14.9768 10.7872 14.7512 11.2044 14.7446C11.9725 14.7446 12.7473 14.6949 13.5221 14.7645C13.9026 14.8106 14.261 14.9687 14.5518 15.2189C15.1908 15.7727 15.7537 16.4127 16.3695 16.9931C16.5172 17.1276 16.7066 17.2073 16.9059 17.2186C17.5681 17.2452 18.2038 17.2186 18.8759 17.2186C18.8759 17.0793 18.9024 16.9666 18.9024 16.8538C18.9024 12.6531 18.9024 8.45234 18.9024 4.25159C18.9024 2.54698 17.6674 1.21379 16.055 1.18395C15.4974 1.15366 14.9432 1.28846 14.4616 1.57154C13.9799 1.85462 13.5921 2.27345 13.3466 2.77581C12.7837 3.82378 12.9956 4.82201 13.6446 5.76055C13.8232 6.00092 14.025 6.22308 14.2472 6.42382C14.5948 6.75546 14.6644 7.11031 14.4127 7.36899C14.1611 7.62767 13.82 7.61108 13.4525 7.28276C12.6487 6.60367 12.1056 5.66575 11.9162 4.62966C11.9162 4.54012 11.8765 4.45389 11.8599 4.37098C10.6183 4.17532 9.21116 5.20671 8.91648 6.54653C8.86445 6.80076 8.83893 7.05972 8.84033 7.31924C8.84033 7.96262 8.60856 8.18482 7.97616 8.05879C7.60538 7.98164 7.22249 7.98401 6.85269 8.06575C6.48289 8.14749 6.13457 8.30674 5.83064 8.53304C5.42275 8.8077 5.09461 9.18549 4.87947 9.62812C4.66433 10.0708 4.56984 10.5625 4.60558 11.0535C4.60558 11.342 4.72477 11.4183 5.0029 11.4315C5.7018 11.4475 6.38822 11.6202 7.01165 11.9371C7.63509 12.2539 8.17964 12.7067 8.60525 13.2622C8.73829 13.4448 8.79743 13.6711 8.7708 13.8956C8.73717 13.9887 8.68074 14.0717 8.60668 14.1372C8.53263 14.2027 8.44333 14.2485 8.34699 14.2704C8.11171 14.263 7.8885 14.1643 7.72453 13.9951C7.23957 13.4088 6.59207 12.9795 5.86375 12.7614C5.05788 12.5201 4.19346 12.5657 3.4173 12.8903C2.64115 13.2149 2.00109 13.7987 1.60583 14.5423C1.21777 15.2965 1.09943 16.1611 1.27053 16.992C1.44163 17.823 1.89184 18.5701 2.54615 19.109L2.63885 19.1819C3.12888 19.5799 3.1355 19.9347 2.63885 20.3261C2.13863 20.7097 1.74696 21.2174 1.50251 21.799C1.25805 22.3806 1.16927 23.016 1.24493 23.6424C1.32317 24.4274 1.65748 25.1647 2.19614 25.7402C2.7348 26.3157 3.4478 26.6974 4.22482 26.8262C5.09892 26.9588 5.21811 27.1246 4.98634 27.9571C4.89227 28.3437 4.87975 28.7458 4.94958 29.1376C5.01942 29.5294 5.17007 29.9024 5.39192 30.2326C5.61377 30.5627 5.90194 30.843 6.23802 31.0553C6.5741 31.2677 6.9507 31.4075 7.34376 31.4658C7.57222 31.4923 7.67486 31.416 7.79075 31.2237C8.17956 30.6449 8.6042 30.0911 9.06217 29.5655C9.11203 29.495 9.17751 29.4369 9.25348 29.396C9.32945 29.355 9.41386 29.3321 9.5001 29.3293C9.58634 29.3264 9.67208 29.3435 9.75062 29.3793C9.82915 29.4151 9.89835 29.4686 9.95282 29.5356C10.0092 29.5995 10.0512 29.6747 10.0762 29.7562C10.1011 29.8377 10.1083 29.9236 10.0973 30.0081C10.0864 30.0926 10.0574 30.1738 10.0125 30.2462C9.96761 30.3186 9.90773 30.3805 9.83693 30.4278C9.16104 30.9941 8.71965 31.792 8.59863 32.6663C8.52576 33.227 8.63365 33.7964 8.90655 34.2913C9.12838 34.6992 9.06216 35.0276 8.74762 35.2033C8.6683 35.2522 8.57833 35.2811 8.48541 35.2876C8.3925 35.294 8.29941 35.2778 8.21413 35.2403C8.12884 35.2028 8.05391 35.1451 7.99574 35.0723C7.93757 34.9994 7.89791 34.9135 7.88014 34.822C7.68292 34.2205 7.51606 33.6095 7.38018 32.9913C7.3626 32.8928 7.35484 32.7929 7.35701 32.6928C6.80562 32.627 6.273 32.4511 5.79062 32.1756C5.30824 31.9 4.8859 31.5304 4.54854 31.0887C4.21117 30.6469 3.96564 30.1418 3.82644 29.6034C3.68724 29.0649 3.65721 28.504 3.7381 27.9537C1.95348 27.4397 0.698619 26.3387 0.218526 24.5014C-0.261567 22.6641 0.198659 21.1054 1.48994 19.7258C0.696353 18.9403 0.17429 17.9212 0 16.8173V15.65C0.0306928 15.5793 0.0550693 15.5061 0.0728421 15.4311C0.214175 14.5859 0.579357 13.7942 1.13029 13.1385C1.68122 12.4828 2.39772 11.9873 3.20503 11.7035L3.47322 11.5941C3.37234 10.9955 3.405 10.382 3.56884 9.79764C3.73269 9.21324 4.02367 8.67242 4.4209 8.214C4.81812 7.75558 5.31174 7.39092 5.86632 7.14619C6.4209 6.90147 7.0227 6.78276 7.62851 6.79857C8.53241 4.06256 9.284 3.41587 11.9328 3.12403L12.0321 2.83882C12.2242 2.26911 12.5382 1.74833 12.9523 1.31295C13.3664 0.877577 13.8705 0.538126 14.4293 0.318372C14.7405 0.19235 15.065 0.112756 15.3861 0.00994872L16.4854 0ZM34.8945 32.6166C35.5236 32.0727 36.1493 31.5454 36.7552 30.9915C36.7958 30.9353 36.823 30.8704 36.8344 30.802C36.8459 30.7335 36.8415 30.6633 36.8215 30.5969C36.689 30.189 36.4904 29.8043 36.3745 29.393C36.3142 29.1212 36.3222 28.8386 36.3977 28.5706C36.5536 28.0063 36.7449 27.4525 36.9705 26.9124C37.0765 26.6523 37.2475 26.4239 37.4671 26.2491C37.8174 25.9987 38.1872 25.7769 38.573 25.5858C38.6491 25.5541 38.7106 25.495 38.7455 25.4201C38.7804 25.3453 38.7862 25.2601 38.7617 25.1812C38.616 24.4682 38.4968 23.7486 38.3412 23.0355C38.3159 22.9708 38.2763 22.9126 38.2252 22.8655C38.1741 22.8184 38.113 22.7835 38.0465 22.7636C37.6525 22.6774 37.2519 22.6343 36.8513 22.5812C36.6901 22.5641 36.5342 22.5138 36.3934 22.4333C36.2526 22.3528 36.1301 22.2439 36.0334 22.1136C35.6825 21.6626 35.2719 21.258 34.9276 20.8036C34.7538 20.5858 34.6397 20.3263 34.5965 20.0508C34.5402 19.613 34.5965 19.1653 34.57 18.7243C34.57 18.6281 34.5104 18.4722 34.4409 18.4457C33.686 18.1638 32.9277 17.9051 32.2523 17.6697C31.7987 18.9962 31.355 20.2631 30.9279 21.5332C33.08 21.961 34.3084 23.0322 34.6693 24.8231C34.8337 25.6079 34.7598 26.424 34.4571 27.1664C34.1544 27.9087 33.6367 28.5433 32.9708 28.9884C31.0935 30.1624 29.3287 29.8739 27.6732 28.4711L26.3687 29.6318C27.362 30.5604 27.4613 31.6216 26.7759 32.7956C27.5606 33.0709 28.3056 33.3395 29.0572 33.5816C29.1255 33.5916 29.1953 33.5861 29.2612 33.5654C29.3271 33.5447 29.3875 33.5095 29.438 33.4622C29.726 33.1306 29.9512 32.7658 30.2591 32.4673C30.4733 32.2736 30.7312 32.1347 31.0107 32.0627C31.5504 31.9201 32.1099 31.8671 32.6662 31.7311C32.8212 31.6833 32.9845 31.669 33.1454 31.689C33.3064 31.709 33.4612 31.7629 33.5999 31.8472C34.0171 32.1224 34.4508 32.3612 34.8945 32.6166ZM30.6564 22.684C30.3981 22.757 30.0571 22.7503 29.9015 22.9162C29.2393 23.6126 28.7625 24.382 28.7427 25.4034C28.6992 25.9729 28.5881 26.5351 28.4116 27.0782C28.373 27.171 28.3627 27.2732 28.3822 27.3718C28.4016 27.4704 28.4499 27.5609 28.5208 27.632C28.9724 28.0987 29.5637 28.405 30.2049 28.5044C30.8462 28.6037 31.5022 28.4907 32.0735 28.1826C32.629 27.8714 33.0672 27.3862 33.3208 26.8015C33.5744 26.2168 33.6294 25.5648 33.4774 24.9458C33.314 24.3143 32.9509 23.7527 32.4424 23.345C31.934 22.9373 31.3074 22.7054 30.6564 22.684ZM20.0911 32.4673C21.7465 32.4673 23.402 32.4673 25.0112 32.4673C25.149 32.4691 25.2859 32.4431 25.4135 32.3908C25.5411 32.3385 25.6569 32.261 25.7539 32.1628C25.8509 32.0647 25.9272 31.948 25.9783 31.8197C26.0293 31.6914 26.054 31.5541 26.0508 31.416C26.0519 31.2752 26.0243 31.1356 25.9697 31.0057C25.9152 30.8759 25.8348 30.7585 25.7335 30.6608C25.6322 30.563 25.5121 30.487 25.3805 30.4372C25.2489 30.3875 25.1086 30.3651 24.9681 30.3714C23.3921 30.3714 21.8161 30.3714 20.2434 30.3714C20.1915 30.3767 20.1404 30.3879 20.0911 30.4045V32.4673ZM20.0911 35.4521C20.9652 35.4521 21.8095 35.5118 22.6438 35.4521C23.4782 35.3924 23.9682 34.5401 23.7398 33.6911H20.0977L20.0911 35.4521Z" fill="white"/>
<path d="M25.4218 3.98629C24.892 3.98629 24.594 3.63475 24.7099 3.24342C24.902 2.59673 25.1205 1.95998 25.3523 1.32655C25.3761 1.25521 25.4139 1.18934 25.4634 1.13276C25.5129 1.07619 25.5731 1.03004 25.6406 0.997019C25.7081 0.963993 25.7815 0.944747 25.8564 0.9404C25.9314 0.936054 26.0065 0.946694 26.0774 0.971701C26.1515 0.995882 26.22 1.03481 26.2788 1.08615C26.3376 1.13749 26.3854 1.20018 26.4194 1.27047C26.4534 1.34077 26.4729 1.41721 26.4767 1.49523C26.4805 1.57325 26.4686 1.65124 26.4416 1.72452C26.2462 2.34137 26.0575 2.96484 25.8158 3.56511C25.7363 3.76077 25.5079 3.89675 25.4218 3.98629Z" fill="white"/>
<path d="M32.9907 5.66762C32.8976 5.84436 32.7866 6.01105 32.6596 6.16508C32.2126 6.58294 31.7524 6.98754 31.2855 7.38219C31.2317 7.44407 31.1653 7.49368 31.0908 7.52768C31.0163 7.56168 30.9353 7.57927 30.8534 7.57927C30.7715 7.57927 30.6906 7.56168 30.616 7.52768C30.5415 7.49368 30.4751 7.44407 30.4213 7.38219C30.3653 7.32211 30.3227 7.25079 30.2962 7.17296C30.2698 7.09512 30.2602 7.01256 30.268 6.93072C30.2758 6.84888 30.3009 6.76965 30.3416 6.69826C30.3823 6.62687 30.4377 6.56495 30.5041 6.51661C30.9743 6.08548 31.4411 5.64772 31.9444 5.25971C32.0386 5.2018 32.144 5.16474 32.2537 5.15101C32.3633 5.13728 32.4746 5.14721 32.5801 5.18011C32.7457 5.23981 32.845 5.48522 32.9907 5.66762Z" fill="white"/>
<path d="M34.0169 13.4743C33.5733 13.4743 33.3547 13.2953 33.3183 12.9702C33.3034 12.9022 33.3022 12.8319 33.3148 12.7634C33.3275 12.695 33.3538 12.6297 33.392 12.5716C33.4303 12.5135 33.4799 12.4636 33.5377 12.425C33.5956 12.3864 33.6606 12.3598 33.7289 12.3468C34.4143 12.1876 35.0996 12.0383 35.7916 11.9256C35.8604 11.9143 35.9308 11.9169 35.9986 11.9332C36.0663 11.9496 36.1302 11.9793 36.1863 12.0207C36.2424 12.0621 36.2898 12.1144 36.3255 12.1743C36.3612 12.2343 36.3845 12.3008 36.3942 12.37C36.4174 12.4352 36.4272 12.5045 36.423 12.5736C36.4188 12.6428 36.4007 12.7103 36.3698 12.7723C36.3388 12.8342 36.2957 12.8893 36.243 12.9341C36.1904 12.979 36.1292 13.0127 36.0631 13.0333C35.3446 13.2157 34.6295 13.3616 34.0169 13.4743Z" fill="white"/>
</svg>
