<svg width="16" height="16" viewBox="0 0 16 16" fill="none" xmlns="http://www.w3.org/2000/svg">
<path fill-rule="evenodd" clip-rule="evenodd" d="M11.6995 1.93301C11.7157 1.74316 11.793 1.52381 11.9177 1.38464C11.996 1.29731 12.0758 1.21137 12.1569 1.12644C12.1812 1.10093 12.2057 1.07551 12.2302 1.05017C12.3591 0.917074 12.4905 0.786218 12.6227 0.656129C12.6238 0.655078 12.6249 0.654026 12.626 0.652974C12.6918 0.588233 12.7578 0.52368 12.8238 0.459132C12.9127 0.372283 13.0015 0.285444 13.0898 0.198169C13.2951 -0.00456099 13.5286 -0.0552443 13.8033 0.0623225C14.0659 0.174489 14.1531 0.381373 14.1556 0.641433C14.1572 0.851015 14.1571 1.0606 14.1566 1.27766C14.1566 1.27787 14.1566 1.27744 14.1566 1.27766C14.1565 1.32322 14.1564 1.36976 14.1563 1.41605C14.1561 1.51914 14.1558 1.6242 14.1557 1.73201C14.1557 1.75915 14.1556 1.78647 14.1556 1.81397C14.1556 1.82413 14.1556 1.83431 14.1556 1.84452H15.2829C15.5684 1.84452 15.8123 1.9006 15.9407 2.2022C16.0745 2.51669 15.9702 2.75224 15.745 2.97283C15.6129 3.10205 15.4836 3.23426 15.3543 3.36644C15.3305 3.39076 15.3067 3.41507 15.2829 3.43937C15.1726 3.55195 15.062 3.66412 14.9493 3.774C14.9251 3.79762 14.9008 3.82113 14.8764 3.84452C14.7969 3.92065 14.7163 3.99546 14.6339 4.06832C14.4721 4.20168 14.2739 4.28319 14.0651 4.30221C13.856 4.31962 13.6455 4.31872 13.4347 4.31624C13.4148 4.31601 13.3948 4.31576 13.3748 4.31551C13.1832 4.31312 12.9914 4.31072 12.8006 4.3209C12.6471 4.32966 12.5008 4.38946 12.3851 4.49081C12.3578 4.51771 12.3304 4.54462 12.3031 4.57153C12.3031 4.57159 12.3032 4.57147 12.3031 4.57153C11.7043 5.16142 11.1093 5.75559 10.5145 6.34965C10.3174 6.54646 10.1203 6.74327 9.92312 6.93995C9.66258 7.19975 9.40177 7.45931 9.14033 7.71829C9.12279 7.7357 9.1045 7.75302 9.08557 7.77C9.08543 7.77012 9.08571 7.76987 9.08557 7.77C8.98578 7.85944 8.86761 7.94 8.74518 7.97627C8.46886 8.05936 8.19836 7.91645 8.06664 7.66927C7.93949 7.4304 7.99517 7.14417 8.2262 6.91277C8.24539 6.89353 8.26459 6.87428 8.28378 6.85504C8.28402 6.8548 8.28426 6.85456 8.28449 6.85432C8.31608 6.82265 8.34766 6.79098 8.37925 6.7593C8.38064 6.7579 8.38203 6.75651 8.38343 6.75511C8.51159 6.62657 8.63972 6.49799 8.76786 6.36941C8.86516 6.27178 8.96246 6.17415 9.05978 6.07652C9.85251 5.28129 10.6462 4.48678 11.4477 3.70025C11.4761 3.67238 11.5019 3.64458 11.5251 3.61657C11.5409 3.59754 11.5555 3.57841 11.5689 3.5591C11.6645 3.42213 11.7027 3.27595 11.6941 3.08956C11.6837 2.92114 11.6782 2.75249 11.6776 2.58383C11.6768 2.36675 11.6841 2.14966 11.6995 1.93301Z" fill="white"/>
<path fill-rule="evenodd" clip-rule="evenodd" d="M8 0.941176C4.10152 0.941176 0.941176 4.10152 0.941176 8C0.941176 11.8985 4.10152 15.0588 8 15.0588C11.8985 15.0588 15.0588 11.8985 15.0588 8C15.0588 7.38992 14.9815 6.79859 14.8365 6.23494C14.7717 5.98325 14.9232 5.72669 15.1749 5.66191C15.4266 5.59713 15.6832 5.74865 15.7479 6.00035C15.9126 6.63998 16 7.31012 16 8C16 12.4183 12.4183 16 8 16C3.58172 16 0 12.4183 0 8C0 3.58172 3.58172 0 8 0C8.68988 0 9.36002 0.087432 9.99965 0.252063C10.2513 0.316844 10.4029 0.5734 10.3381 0.825096C10.2733 1.07679 10.0168 1.22831 9.76506 1.16353C9.20141 1.01846 8.61008 0.941176 8 0.941176Z" fill="white"/>
<path fill-rule="evenodd" clip-rule="evenodd" d="M8 4.88889C6.28178 4.88889 4.88889 6.28178 4.88889 8C4.88889 9.71822 6.28178 11.1111 8 11.1111C9.71822 11.1111 11.1111 9.71822 11.1111 8C11.1111 7.75454 11.3101 7.55556 11.5556 7.55556C11.801 7.55556 12 7.75454 12 8C12 10.2091 10.2091 12 8 12C5.79086 12 4 10.2091 4 8C4 5.79086 5.79086 4 8 4C8.24546 4 8.44444 4.19898 8.44444 4.44444C8.44444 4.6899 8.24546 4.88889 8 4.88889Z" fill="white"/>
</svg>
