<svg width="67" height="74" viewBox="0 0 67 74" fill="none" xmlns="http://www.w3.org/2000/svg">
<path d="M17.7254 42.8553V32.0743C17.7254 30.9464 17.4946 29.8279 16.9478 28.8414C15.6471 26.4946 12.8515 22.2604 9.61268 22.2604C6.37382 22.2604 3.57826 26.4946 2.27757 28.8414C1.73079 29.8279 1.5 30.9464 1.5 32.0743V34.9517M22.4577 49.27V52.1961V38.1286M22.4577 38.1286L15.0015 45.5758C13.4991 47.0764 12.6549 49.1127 12.6549 51.2361V64.8006M22.4577 38.1286V26.5369M12.6549 64.8006H9.61268M12.6549 64.8006H17.162M22.4577 26.5369V14.6306C22.4577 13.5027 22.6894 12.3891 23.2196 11.3936C24.8319 8.36636 28.827 1.89062 33.5 1.89062C38.173 1.89062 42.1681 8.36636 43.7804 11.3936C44.3106 12.3891 44.5423 13.5027 44.5423 14.6306V26.5369M22.4577 26.5369C22.4577 26.5369 27.4015 15.508 33.5 15.508C39.5985 15.508 44.5423 26.5369 44.5423 26.5369M18.1761 64.8006L24.7349 58.2497C26.2349 56.7514 28.2683 55.9099 30.3883 55.9099H33.5H36.6117C38.7317 55.9099 40.7651 56.7514 42.2651 58.2497L48.8239 64.8006M18.1761 64.8006H17.162M18.1761 64.8006H27.8662M1.5 34.9517L5.265 38.7107C6.76806 40.2113 7.61268 42.2481 7.61268 44.3721V46.9654C7.61268 49.0894 6.76806 51.1262 5.265 52.6268L1.5 56.3858M1.5 34.9517L1.5 56.3858M1.5 56.3858L1.5 56.8006C1.5 61.2189 5.08172 64.8006 9.5 64.8006H9.61268M9.61268 64.8006L8.3626 66.0492C7.72015 66.6908 7.35915 67.5616 7.35915 68.4696V68.4696C7.35915 70.359 8.89079 71.8906 10.7802 71.8906H15.9945C17.8839 71.8906 19.4155 70.359 19.4155 68.4696V68.4696C19.4155 67.5616 19.0545 66.6908 18.412 66.0492L17.162 64.8006M27.8662 64.8006H33.5H39.1338M27.8662 64.8006L26.6161 66.0492C25.9737 66.6908 25.6127 67.5616 25.6127 68.4696V68.4696C25.6127 70.359 27.1443 71.8906 29.0337 71.8906H33.5H37.9663C39.8557 71.8906 41.3873 70.359 41.3873 68.4696V68.4696C41.3873 67.5616 41.0263 66.6908 40.3839 66.0492L39.1338 64.8006M49.2746 42.8553V32.0743C49.2746 30.9464 49.5054 29.8279 50.0522 28.8414C51.3529 26.4946 54.1485 22.2604 57.3873 22.2604C60.6262 22.2604 63.4217 26.4946 64.7224 28.8414C65.2692 29.8279 65.5 30.9464 65.5 32.0743V34.9517M49.2746 42.8553L44.5423 38.1286M49.2746 42.8553L51.9985 45.5758C53.5009 47.0764 54.3451 49.1127 54.3451 51.2361V64.8006M44.5423 38.1286V52.1961V49.27M44.5423 38.1286V26.5369M54.3451 64.8006H57.3873M54.3451 64.8006H49.838M48.8239 64.8006H49.838M48.8239 64.8006H39.1338M65.5 34.9517L61.735 38.7107C60.2319 40.2113 59.3873 42.2481 59.3873 44.3721V46.9654C59.3873 49.0894 60.2319 51.1262 61.735 52.6268L65.5 56.3858M65.5 34.9517V56.3858M65.5 56.3858V56.8006C65.5 61.2189 61.9183 64.8006 57.5 64.8006H57.3873M57.3873 64.8006L58.6374 66.0492C59.2799 66.6908 59.6408 67.5616 59.6408 68.4696V68.4696C59.6408 70.359 58.1092 71.8906 56.2198 71.8906H51.0055C49.1161 71.8906 47.5845 70.359 47.5845 68.4696V68.4696C47.5845 67.5616 47.9455 66.6908 48.588 66.0492L49.838 64.8006M28.7676 27.2122L27.8662 28.1125L29.4596 26.521C30.5317 25.4502 31.9849 24.8488 33.5 24.8488V24.8488V24.8488C35.0151 24.8488 36.4683 25.4502 37.5404 26.521L39.1338 28.1125L38.5704 27.5498" stroke="white" stroke-width="3" stroke-linejoin="round"/>
</svg>
