<svg width="16" height="16" viewBox="0 0 16 16" fill="none" xmlns="http://www.w3.org/2000/svg">
<path d="M8 6.73727e-07C8.11092 -0.000139532 8.22078 0.0216048 8.32329 0.0639884C8.4258 0.106372 8.51893 0.168563 8.59737 0.246997C8.6758 0.325432 8.73799 0.418569 8.78038 0.521075C8.82276 0.623582 8.8445 0.733443 8.84436 0.844366L8.84317 7.15683L15.1556 7.15564C15.2665 7.15564 15.3763 7.17748 15.4788 7.21991C15.5812 7.26234 15.6743 7.32454 15.7527 7.40294C15.8311 7.48135 15.8933 7.57443 15.9357 7.67688C15.9782 7.77932 16 7.88912 16 8C16 8.11088 15.9782 8.22068 15.9357 8.32312C15.8933 8.42557 15.8311 8.51865 15.7527 8.59706C15.6743 8.67546 15.5812 8.73766 15.4788 8.78009C15.3763 8.82253 15.2665 8.84437 15.1556 8.84437L8.84317 8.84317L8.84436 15.1556C8.84436 15.2665 8.82253 15.3763 8.78009 15.4788C8.73766 15.5812 8.67546 15.6743 8.59706 15.7527C8.51865 15.8311 8.42557 15.8933 8.32312 15.9357C8.22068 15.9782 8.11088 16 8 16C7.88912 16 7.77932 15.9782 7.67688 15.9357C7.57443 15.8933 7.48135 15.8311 7.40294 15.7527C7.32454 15.6743 7.26234 15.5812 7.21991 15.4788C7.17747 15.3763 7.15563 15.2665 7.15563 15.1556L7.15683 8.84317L0.844365 8.84437C0.733482 8.84437 0.623684 8.82253 0.521241 8.78009C0.418798 8.73766 0.325716 8.67546 0.247309 8.59706C0.168903 8.51865 0.106707 8.42557 0.0642732 8.32312C0.0218399 8.22068 0 8.11088 0 8C0 7.88912 0.0218399 7.77932 0.0642732 7.67688C0.106707 7.57443 0.168902 7.48135 0.247309 7.40294C0.325715 7.32454 0.418798 7.26234 0.521241 7.21991C0.623684 7.17748 0.733482 7.15564 0.844365 7.15564L7.15683 7.15683L7.15563 0.844366C7.15549 0.733443 7.17724 0.623582 7.21962 0.521075C7.26201 0.418569 7.3242 0.325432 7.40263 0.246997C7.48107 0.168563 7.5742 0.106372 7.67671 0.0639884C7.77922 0.0216048 7.88908 -0.000139532 8 6.73727e-07Z" fill="white"/>
</svg>
