<svg width="39" height="40" viewBox="0 0 39 40" fill="none" xmlns="http://www.w3.org/2000/svg">
<path d="M8.44214 20.3779V19.8669C8.44214 15.8347 8.44214 11.8012 8.44214 7.76634C8.40253 7.23153 8.55045 6.69963 8.8604 6.26236C9.17035 5.82509 9.62289 5.50984 10.14 5.37097C10.4012 5.30992 10.669 5.28176 10.9371 5.28713H15.5804V3.87785C15.5804 3.25106 15.7598 3.0794 16.3775 3.0794C17.3261 3.0794 18.2747 3.0794 19.2751 3.0794C19.2751 2.68017 19.2751 2.28094 19.2751 1.90966C19.2639 1.65744 19.305 1.40563 19.3958 1.1701C19.4866 0.934575 19.6251 0.72043 19.8025 0.541158C19.98 0.361886 20.1926 0.221372 20.427 0.128468C20.6614 0.0355632 20.9124 -0.0077195 21.1643 0.00134843C22.8941 0.00134843 24.6212 0.00134843 26.3456 0.00134843C26.5975 -0.00836727 26.8486 0.0345039 27.0831 0.127234C27.3175 0.219964 27.5301 0.360526 27.7074 0.539992C27.8847 0.719458 28.0228 0.933903 28.1129 1.1697C28.203 1.40549 28.2432 1.65748 28.2308 1.90966C28.2308 2.27695 28.2308 2.64823 28.2308 3.0794H29.3468C29.9566 3.0794 30.5624 3.0794 31.1682 3.0794C31.774 3.0794 31.9215 3.27102 31.9255 3.84591C31.9255 4.30902 31.9255 4.77212 31.9255 5.29511H36.6086C38.0713 5.29511 39 6.21334 39 7.66653V37.5008C39 39.0419 38.0434 40 36.505 40H10.8734C9.62188 40 8.90845 39.485 8.48199 38.3153C8.44612 38.2194 8.29865 38.1436 8.18705 38.0997C8.08289 38.0815 7.97636 38.0815 7.87219 38.0997C6.99136 38.0997 6.87578 38.0398 6.76817 37.1815C6.7667 36.9192 6.67934 36.6647 6.5195 36.457C6.35966 36.2493 6.13617 36.0999 5.88336 36.0317C5.37718 35.856 5.0105 35.8041 4.62788 36.1954C4.50726 36.3094 4.37346 36.4086 4.22932 36.4908C4.10512 36.5828 3.95132 36.6256 3.79754 36.6109C3.64375 36.5961 3.50083 36.5249 3.39632 36.4109C2.81043 35.8161 2.23252 35.2133 1.66656 34.6104C1.60409 34.5592 1.55293 34.4956 1.51635 34.4235C1.47977 34.3514 1.45855 34.2725 1.45405 34.1918C1.44955 34.1111 1.46187 34.0303 1.49022 33.9546C1.51857 33.8789 1.56233 33.8099 1.61873 33.7521C1.91566 33.5066 2.10842 33.1573 2.15799 32.7748C2.20757 32.3924 2.11027 32.0054 1.88577 31.6921C1.74627 31.4605 1.67453 31.2928 1.3756 31.2569C1.10731 31.2211 0.841192 31.1704 0.578476 31.1052C0.417787 31.0939 0.26774 31.0206 0.159941 30.9007C0.0521405 30.7808 -0.00499701 30.6237 0.000560117 30.4624C0.000560117 29.6041 0.000560117 28.7418 0.000560117 27.8834C-0.00584389 27.7358 0.0428509 27.591 0.137159 27.4774C0.231467 27.3637 0.364634 27.2893 0.510721 27.2686C0.537009 27.2631 0.564147 27.2631 0.590435 27.2686C1.55496 27.3046 2.06512 26.7736 2.28433 25.8913C2.32146 25.7586 2.31016 25.6171 2.25244 25.4921C2.08903 25.2086 1.88178 24.9491 1.69446 24.6936C1.64106 24.6296 1.60076 24.5558 1.57587 24.4762C1.55097 24.3967 1.54197 24.313 1.54937 24.2299C1.55677 24.1469 1.58044 24.0661 1.61901 23.9922C1.65758 23.9183 1.7103 23.8528 1.77417 23.7993C2.3481 23.2364 2.92602 22.6695 3.5119 22.1186C3.56619 22.05 3.63432 21.9936 3.71183 21.9531C3.78935 21.9126 3.87452 21.889 3.96177 21.8837C4.04903 21.8784 4.13641 21.8916 4.21823 21.9225C4.30004 21.9533 4.37444 22.0011 4.43657 22.0627C4.67222 22.3534 5.01003 22.5426 5.38064 22.5916C5.75124 22.6406 6.12651 22.5456 6.42939 22.3262C6.68845 22.1785 6.89571 22.0986 6.91165 21.7633C6.93746 21.5126 6.98277 21.2643 7.04716 21.0207C7.13883 20.5656 7.31021 20.4179 7.77255 20.4099C7.97183 20.3779 8.1751 20.3779 8.44214 20.3779ZM9.75341 38.1236C9.86184 38.3425 10.0345 38.5229 10.2482 38.6406C10.462 38.7584 10.7065 38.8078 10.9491 38.7824H36.5289C37.4097 38.7824 37.8083 38.3831 37.8083 37.4968V7.80226C37.8083 6.94392 37.4097 6.53671 36.5528 6.53671C35.1419 6.53671 33.727 6.53671 32.3161 6.53671H31.9574C31.9437 6.58388 31.933 6.63189 31.9255 6.68043C31.9255 7.07966 31.9255 7.47889 31.9255 7.91005C31.9255 8.57677 31.7461 8.75243 31.0766 8.75243C26.1955 8.75243 21.3131 8.75243 16.4293 8.75243C15.7358 8.75243 15.5685 8.58475 15.5645 7.8861V6.58063C15.5194 6.56276 15.4727 6.54938 15.425 6.5407H10.9531C10.0802 6.5407 9.68167 6.93993 9.68167 7.83021V20.4298H9.97262C10.5744 20.4538 10.698 20.5576 10.8216 21.1485C10.8605 21.4176 10.9151 21.6842 10.985 21.9469C11.0325 22.0845 11.129 22.1996 11.256 22.2703C11.6107 22.4459 12.0013 22.7294 12.3441 22.6935C12.6868 22.6575 13.0256 22.2942 13.3644 22.0627L13.4321 22.0188C13.5513 21.9309 13.6988 21.8904 13.846 21.9052C13.9933 21.9199 14.1298 21.9889 14.2293 22.0986C14.8152 22.6895 15.3971 23.2963 15.963 23.8951C16.0275 23.953 16.0798 24.0233 16.1168 24.1017C16.1538 24.1801 16.1748 24.2652 16.1785 24.3518C16.1822 24.4385 16.1686 24.525 16.1384 24.6064C16.1083 24.6877 16.0622 24.7621 16.0029 24.8253C15.8136 25.0636 15.6405 25.3144 15.4848 25.5759C15.4243 25.7001 15.4115 25.8421 15.4489 25.9751C15.5724 26.3744 15.6362 26.8574 15.9072 27.089C16.1783 27.3205 16.7044 27.3285 17.1029 27.4044C17.2633 27.4186 17.4118 27.495 17.5167 27.6173C17.6217 27.7396 17.6749 27.8981 17.6649 28.0591C17.6649 28.9055 17.6649 29.7518 17.6649 30.5982C17.6703 30.6814 17.6587 30.7648 17.6308 30.8433C17.6028 30.9218 17.5591 30.9937 17.5024 31.0547C17.4456 31.1156 17.377 31.1643 17.3008 31.1977C17.2245 31.2311 17.1423 31.2486 17.0591 31.2489C16.7439 31.2794 16.4311 31.33 16.1225 31.4006C16.0598 31.4175 16.0011 31.4467 15.9498 31.4864C15.8985 31.5261 15.8556 31.5757 15.8235 31.6322C15.6521 31.9875 15.3732 32.3747 15.425 32.7221C15.4768 33.0694 15.8235 33.4088 16.0348 33.7481C16.0926 33.8128 16.1367 33.8885 16.1645 33.9707C16.1923 34.053 16.2032 34.14 16.1965 34.2266C16.1898 34.3131 16.1656 34.3974 16.1255 34.4744C16.0854 34.5513 16.0301 34.6193 15.963 34.6743C15.3891 35.2412 14.8112 35.8041 14.2253 36.3551C14.1674 36.4199 14.0973 36.4725 14.0189 36.51C13.9406 36.5476 13.8556 36.5692 13.7689 36.5736C13.6822 36.5781 13.5955 36.5653 13.5138 36.536C13.432 36.5067 13.3569 36.4615 13.2927 36.403C13.1697 36.326 13.0513 36.242 12.9379 36.1514C12.5673 35.7802 12.2165 35.8001 11.7143 35.9758C11.4346 36.042 11.1851 36.2003 11.0058 36.4254C10.8266 36.6506 10.728 36.9294 10.7259 37.2174C10.6342 38.0039 10.5226 38.0638 9.75341 38.1396V38.1236ZM3.89851 35.1494C4.21736 34.9338 4.5123 34.7502 4.80325 34.5346C4.91748 34.4504 5.05371 34.4015 5.19528 34.3937C5.33686 34.3859 5.47763 34.4196 5.60038 34.4907C6.15837 34.7422 6.72831 34.9857 7.30623 35.1973C7.4522 35.2376 7.5837 35.3187 7.68534 35.4311C7.78698 35.5435 7.85456 35.6826 7.88016 35.8321C7.9519 36.1954 8.02364 36.5587 8.12328 36.914C8.1395 36.9636 8.1676 37.0084 8.20512 37.0446C8.24264 37.0808 8.28843 37.1072 8.33851 37.1216C8.7849 37.1415 9.23129 37.1216 9.68167 37.1216C9.74145 36.7702 9.81319 36.4589 9.84508 36.1475C9.85558 35.982 9.91724 35.8239 10.0215 35.6951C10.1258 35.5663 10.2675 35.4733 10.427 35.4288C10.9929 35.2212 11.5549 34.9897 12.1049 34.7382C12.236 34.6622 12.387 34.628 12.538 34.6401C12.6889 34.6522 12.8326 34.7101 12.9499 34.806C13.209 35.0057 13.476 35.2053 13.6673 35.333L14.8032 34.2152C14.6278 33.9597 14.4365 33.6722 14.2412 33.3928C14.1608 33.2766 14.1147 33.14 14.1084 32.9987C14.102 32.8575 14.1356 32.7173 14.2054 32.5943C14.4565 32.0474 14.6956 31.4885 14.8949 30.9216C14.9333 30.7673 15.0181 30.6286 15.1379 30.5244C15.2577 30.4201 15.4066 30.3553 15.5645 30.3387C15.8993 30.2948 16.2301 30.2309 16.5808 30.171V29.6201C16.5808 28.638 16.5808 28.626 15.6322 28.4503C15.4495 28.4265 15.2782 28.3483 15.1404 28.2259C15.0025 28.1035 14.9045 27.9425 14.859 27.7637C14.6658 27.2204 14.445 26.6874 14.1974 26.1668C14.1262 26.0401 14.0929 25.8956 14.1014 25.7505C14.1099 25.6054 14.1598 25.4658 14.2452 25.3483C14.4485 25.0569 14.6438 24.7615 14.8032 24.5499L13.6912 23.4161L12.8502 23.971C12.7273 24.0588 12.5814 24.1085 12.4305 24.1142C12.2797 24.1199 12.1305 24.0812 12.0013 24.0029C11.4841 23.7492 10.9517 23.5279 10.4071 23.3402C10.2327 23.3015 10.0758 23.2068 9.95998 23.0707C9.84418 22.9345 9.77586 22.7642 9.76537 22.5857C9.73348 22.2743 9.66573 21.9669 9.60993 21.6515H8.08741C8.0356 21.9828 7.9798 22.3062 7.93197 22.6296C7.9202 22.7814 7.86402 22.9264 7.77045 23.0464C7.67687 23.1664 7.55007 23.2561 7.40587 23.3043C6.816 23.5279 6.23409 23.7714 5.65219 24.0229C5.5186 24.0949 5.36672 24.1258 5.21567 24.1116C5.06461 24.0974 4.92112 24.0387 4.80325 23.943C4.53621 23.7355 4.24526 23.5438 3.96228 23.3642L2.86225 24.4102C3.06153 24.7016 3.26081 24.977 3.43618 25.2405C3.53673 25.3708 3.59614 25.5282 3.60679 25.6925C3.61745 25.8568 3.57885 26.0206 3.49596 26.1628C3.24885 26.6897 3.02167 27.2247 2.82239 27.7597C2.78302 27.8996 2.70349 28.0249 2.59367 28.12C2.48385 28.2151 2.34857 28.2759 2.20462 28.2946L1.16038 28.4703V29.9993C1.50713 30.0592 1.82997 30.1231 2.1528 30.167C2.31031 30.1828 2.45913 30.2468 2.57897 30.3504C2.6988 30.454 2.78381 30.5921 2.82239 30.7459C3.03363 31.3248 3.28074 31.8917 3.52785 32.4586C3.59434 32.5802 3.6241 32.7185 3.61348 32.8567C3.60287 32.995 3.55234 33.1271 3.46806 33.2371C3.26479 33.5126 3.0695 33.788 2.86225 34.0755L3.89851 35.1494ZM16.8239 7.49486H30.662V4.30104C29.6656 4.30104 28.6692 4.30104 27.7167 4.30104C27.2105 4.30104 27.0232 4.10941 27.0152 3.61037C27.0072 3.11134 27.0152 2.52447 27.0152 1.98551C27.0152 1.44655 26.792 1.23097 26.2659 1.22698C24.5893 1.22698 22.9126 1.22698 21.236 1.22698C20.7099 1.22698 20.5027 1.45055 20.4947 1.98551C20.4947 2.44862 20.4947 2.91172 20.4947 3.37483C20.4947 4.17328 20.3711 4.30104 19.586 4.30104H17.1747C17.0601 4.30305 16.9457 4.31105 16.8319 4.32499L16.8239 7.49486Z" fill="white"/>
<path d="M35.2934 30.9455C35.2934 32.6515 35.2934 34.3562 35.2934 36.0596C35.2934 36.7183 35.134 36.882 34.4763 36.882C33.5517 36.882 32.627 36.882 31.7063 36.882C31.1324 36.882 30.9331 36.6864 30.9331 36.1235C30.9331 32.6635 30.9331 29.2128 30.9331 25.7715C30.9331 25.2006 31.1284 25.0129 31.6944 25.0129C32.6323 25.0129 33.5623 25.0129 34.4843 25.0129C35.0742 25.0129 35.2814 25.2046 35.2814 25.7914C35.2974 27.5081 35.2934 29.2248 35.2934 30.9455ZM32.1966 35.6244H34.0499V26.2505H32.1966V35.6244Z" fill="white"/>
<path d="M29.3348 31.7999C29.3348 33.2411 29.3348 34.6823 29.3348 36.1196C29.3348 36.6944 29.1515 36.8781 28.5775 36.8821C27.629 36.8821 26.6764 36.8821 25.7278 36.8821C25.1619 36.8821 24.9785 36.6825 24.9785 36.1076C24.9785 33.2145 24.9785 30.3214 24.9785 27.4284C24.9785 26.8615 25.1658 26.6778 25.7398 26.6738C26.6884 26.6738 27.6409 26.6738 28.5895 26.6738C29.1555 26.6738 29.3348 26.8615 29.3348 27.4403C29.3388 28.8935 29.3348 30.3587 29.3348 31.7999ZM28.0913 27.9114H26.246V35.6285H28.0913V27.9114Z" fill="white"/>
<path d="M23.7072 20.6373H13.771C13.6269 20.644 13.4825 20.6347 13.3405 20.6094C13.201 20.5885 13.0747 20.5148 12.9879 20.4033C12.9011 20.2918 12.8604 20.1512 12.8742 20.0105C12.8658 19.8694 12.9108 19.7302 13.0001 19.6207C13.0895 19.5113 13.2167 19.4395 13.3565 19.4197C13.489 19.4054 13.6226 19.4054 13.755 19.4197H33.7071C33.7869 19.4197 33.8666 19.4197 33.9423 19.4197C34.0254 19.4156 34.1083 19.4291 34.1859 19.4592C34.2634 19.4894 34.3337 19.5355 34.3923 19.5945C34.451 19.6536 34.4965 19.7244 34.5261 19.8022C34.5557 19.8801 34.5686 19.9633 34.5641 20.0465C34.5641 20.4138 34.3369 20.6293 33.9263 20.6573C33.8068 20.6573 33.6872 20.6573 33.5716 20.6573L23.7072 20.6373Z" fill="white"/>
<path d="M23.7151 16.761H13.8188C13.6862 16.7733 13.5528 16.7733 13.4202 16.761C13.2666 16.7469 13.1242 16.6745 13.022 16.5588C12.9198 16.4431 12.8655 16.2927 12.8702 16.1382C12.8676 16.0617 12.8802 15.9855 12.9073 15.9139C12.9345 15.8424 12.9756 15.777 13.0283 15.7216C13.0811 15.6662 13.1443 15.6219 13.2143 15.5913C13.2843 15.5607 13.3598 15.5444 13.4362 15.5434C13.5543 15.5353 13.6728 15.5353 13.7909 15.5434H33.6593C33.8033 15.5386 33.9475 15.548 34.0897 15.5713C34.2228 15.5892 34.3443 15.6566 34.43 15.7602C34.5157 15.8638 34.5593 15.9959 34.5521 16.1302C34.5721 16.27 34.5378 16.4121 34.4562 16.5273C34.3746 16.6424 34.252 16.7218 34.1137 16.749C33.9719 16.7765 33.8273 16.7859 33.6832 16.777L23.7151 16.761Z" fill="white"/>
<path d="M23.727 12.8765H13.7948C13.6767 12.8825 13.5583 12.8825 13.4401 12.8765C13.287 12.8637 13.1441 12.7946 13.0389 12.6826C12.9337 12.5706 12.8736 12.4235 12.8701 12.2697C12.8637 12.1157 12.9183 11.9654 13.0221 11.8517C13.1259 11.738 13.2705 11.6701 13.4242 11.6628C13.5569 11.6547 13.69 11.6547 13.8227 11.6628H33.6114C33.77 11.6602 33.9285 11.6695 34.0857 11.6908C34.2257 11.7069 34.3539 11.7774 34.4426 11.8871C34.5313 11.9969 34.5734 12.1371 34.56 12.2777C34.5733 12.4247 34.5279 12.5711 34.4339 12.6848C34.3398 12.7985 34.2045 12.8703 34.0578 12.8845C33.9252 12.8967 33.7918 12.8967 33.6592 12.8845L23.727 12.8765Z" fill="white"/>
<path d="M19.024 32.754C19.024 31.6441 19.024 30.5343 19.024 29.4204C19.024 28.8335 19.1954 28.6539 19.7653 28.6499H22.6589C23.181 28.6499 23.3803 28.8535 23.3803 29.3685C23.3803 31.6321 23.3803 33.8918 23.3803 36.1554C23.3803 36.6784 23.177 36.89 22.6669 36.894C21.6917 36.894 20.7152 36.894 19.7374 36.894C19.2073 36.894 19.024 36.6983 19.02 36.1714C19.02 35.0216 19.024 33.8838 19.024 32.754ZM20.2675 29.8955V35.6404H22.1129V29.8875L20.2675 29.8955Z" fill="white"/>
<path d="M8.87247 24.8252C9.74639 24.8396 10.5964 25.1134 11.3148 25.612C12.0333 26.1106 12.5879 26.8115 12.9084 27.6261C13.2289 28.4406 13.3008 29.332 13.1152 30.1875C12.9296 31.0431 12.4947 31.8242 11.8655 32.4319C11.2364 33.0397 10.4414 33.4468 9.58117 33.6017C8.72093 33.7566 7.83414 33.6523 7.0331 33.3021C6.23206 32.9518 5.5528 32.3713 5.08134 31.6341C4.60988 30.8969 4.36741 30.0361 4.38465 29.1608C4.39502 28.5809 4.51934 28.0088 4.75051 27.4771C4.98168 26.9453 5.31516 26.4644 5.73191 26.0618C6.14867 25.6592 6.64052 25.3427 7.17939 25.1306C7.71825 24.9184 8.29357 24.8146 8.87247 24.8252ZM12.0012 29.2486C12.0012 28.617 11.8142 27.9995 11.4638 27.4743C11.1135 26.949 10.6155 26.5397 10.0329 26.2979C9.45026 26.0562 8.80915 25.993 8.19064 26.1162C7.57213 26.2394 7.00399 26.5436 6.55807 26.9903C6.11215 27.4369 5.80848 28.006 5.68545 28.6256C5.56242 29.2451 5.62556 29.8873 5.86689 30.4709C6.10822 31.0545 6.5169 31.5533 7.04125 31.9042C7.5656 32.2552 8.18206 32.4425 8.81269 32.4425C9.23245 32.4462 9.64874 32.3661 10.0373 32.2069C10.4258 32.0478 10.7788 31.8127 11.0756 31.5153C11.3724 31.218 11.6071 30.8644 11.7661 30.4753C11.925 30.0861 12.0049 29.6691 12.0012 29.2486Z" fill="white"/>
</svg>
