<svg width="26" height="16" viewBox="0 0 26 16" fill="none" xmlns="http://www.w3.org/2000/svg">
<path d="M14.8592 9.90924C14.3528 10.4156 13.6661 10.7 12.95 10.7C12.2339 10.7 11.5472 10.4156 11.0408 9.90924C10.5345 9.40289 10.25 8.71613 10.25 8.00005C10.25 7.28396 10.5345 6.59721 11.0408 6.09086C11.5472 5.58451 12.2339 5.30005 12.95 5.30005C13.6661 5.30005 14.3528 5.58451 14.8592 6.09086C15.3655 6.59721 15.65 7.28396 15.65 8.00005C15.65 8.71613 15.3655 9.40289 14.8592 9.90924Z" stroke="white"/>
<path d="M0 1.6C0 1.17565 0.171205 0.768687 0.475951 0.468629C0.780698 0.168571 1.19402 0 1.625 0H24.375C24.806 0 25.2193 0.168571 25.524 0.468629C25.8288 0.768687 26 1.17565 26 1.6V14.4C26 14.8243 25.8288 15.2313 25.524 15.5314C25.2193 15.8314 24.806 16 24.375 16H1.625C1.19402 16 0.780698 15.8314 0.475951 15.5314C0.171205 15.2313 0 14.8243 0 14.4V1.6ZM4.875 1C4.875 1.84869 4.875 2.92548 3.9231 3.86274C2.97119 4.8 1.86195 4.8 1 4.8V11.2C1.86195 11.2 2.97119 11.2 3.9231 12.1373C4.875 13.0745 4.875 14.1513 4.875 15H21.125C21.125 14.1513 21.4674 12.7374 22.0769 12.1373C23.0288 11.2 24.138 11.2 25 11.2V4.8C24.138 4.8 23.0288 4.8 22.0769 3.86274C21.125 2.92548 21.125 1.84869 21.125 1H4.875Z" fill="white"/>
</svg>
