<svg width="18" height="18" viewBox="0 0 18 18" fill="none" xmlns="http://www.w3.org/2000/svg">
<path d="M7.1243 3.06901C7.76861 1.32778 10.2314 1.32778 10.8757 3.06901L11.6519 5.16652C11.8544 5.71396 12.286 6.14558 12.8335 6.34815L14.931 7.1243C16.6722 7.76861 16.6722 10.2314 14.931 10.8757L12.8335 11.6519C12.286 11.8544 11.8544 12.286 11.6519 12.8335L10.8757 14.931C10.2314 16.6722 7.76861 16.6722 7.1243 14.931L6.34815 12.8335C6.14558 12.286 5.71396 11.8544 5.16652 11.6519L3.06901 10.8757C1.32778 10.2314 1.32778 7.76861 3.06901 7.1243L5.16652 6.34815C5.71396 6.14558 6.14558 5.71396 6.34815 5.16652L7.1243 3.06901Z" stroke="white" stroke-width="2"/>
</svg>
