<svg width="21" height="16" viewBox="0 0 21 16" fill="none" xmlns="http://www.w3.org/2000/svg">
<path d="M8.06793 9.96282C6.76947 11.2835 6.0637 12.9841 6.0625 14.6624C6.05794 14.945 6.08731 15.2262 6.14935 15.5H1.3159C1.31557 15.5 1.31516 15.5 1.31468 15.5C1.31106 15.4998 1.3034 15.4995 1.29229 15.4987C1.2699 15.4971 1.2346 15.4936 1.19089 15.4862C1.10114 15.471 0.988947 15.4415 0.882683 15.3875C0.778542 15.3346 0.688449 15.2627 0.623102 15.1632C0.559558 15.0663 0.5 14.9141 0.5 14.6667C0.5 14.1174 0.786753 12.8985 1.69465 11.8224C2.58204 10.7707 4.08172 9.83333 6.5625 9.83333V9.83337L6.56872 9.83329C7.07209 9.82703 7.57416 9.87055 8.06793 9.96282ZM9.18968 15.5C9.18804 15.4999 9.18558 15.4998 9.18235 15.4996C9.17843 15.4994 9.17338 15.4991 9.16729 15.4987C9.1449 15.4971 9.1096 15.4936 9.06589 15.4862C8.97614 15.471 8.86395 15.4415 8.75768 15.3875C8.65354 15.3346 8.56345 15.2627 8.4981 15.1632C8.43456 15.0663 8.375 14.9141 8.375 14.6667C8.375 14.1174 8.66175 12.8985 9.56965 11.8224C10.457 10.7707 11.9567 9.83333 14.4375 9.83333C16.9183 9.83333 18.418 10.7707 19.3054 11.8224C20.2132 12.8985 20.5 14.1174 20.5 14.6667C20.5 14.9141 20.4404 15.0663 20.3769 15.1632C20.3116 15.2627 20.2215 15.3346 20.1173 15.3875C20.0111 15.4415 19.8989 15.471 19.8091 15.4862C19.7654 15.4936 19.7301 15.4971 19.7077 15.4987C19.6966 15.4995 19.6889 15.4998 19.6853 15.5C19.6848 15.5 19.6844 15.5 19.6841 15.5H9.1909C9.19057 15.5 9.19016 15.5 9.18968 15.5ZM16.8654 6.47767C16.2201 7.1332 15.3466 7.5 14.4375 7.5C13.5284 7.5 12.6549 7.1332 12.0096 6.47767C11.364 5.82187 11 4.93078 11 4C11 3.06922 11.364 2.17813 12.0096 1.52233C12.6549 0.866805 13.5284 0.5 14.4375 0.5C15.3466 0.5 16.2201 0.866805 16.8654 1.52233C17.511 2.17813 17.875 3.06922 17.875 4C17.875 4.93078 17.511 5.82187 16.8654 6.47767ZM7.87012 6.67293C7.3479 7.20343 6.64132 7.5 5.90625 7.5C5.17118 7.5 4.4646 7.20343 3.94238 6.67293C3.41991 6.14216 3.125 5.42063 3.125 4.66667C3.125 3.9127 3.41991 3.19117 3.94238 2.6604C4.4646 2.1299 5.17118 1.83333 5.90625 1.83333C6.64132 1.83333 7.3479 2.1299 7.87012 2.6604C8.39259 3.19117 8.6875 3.9127 8.6875 4.66667C8.6875 5.42063 8.39259 6.14216 7.87012 6.67293Z" stroke="white"/>
</svg>
