<svg width="41" height="43" viewBox="0 0 41 43" fill="none" xmlns="http://www.w3.org/2000/svg">
<path d="M11.3803 24.9084V19.4994C11.3803 18.3597 11.154 17.2217 10.5487 16.2561C9.70216 14.9054 8.28965 13.1399 6.69014 13.1399C5.09063 13.1399 3.67812 14.9054 2.83158 16.2561C2.22632 17.2217 2 18.3597 2 19.4994V20.3921L2 32.6401L2 32.7584C2 35.3487 4.09985 37.4486 6.69014 37.4486V37.4486M14.1162 27V28.574V22.2074M14.1162 22.2074L10.8286 25.453C9.30598 26.9562 8.44894 29.0066 8.44894 31.1461V37.4486M14.1162 22.2074V15.5836M8.44894 37.4486H6.69014M8.44894 37.4486H11.0546M14.1162 15.5836V9.53153C14.1162 8.39184 14.3486 7.25952 14.9243 6.27596C16.0162 4.41076 18.1039 1.5 20.5 1.5C22.8961 1.5 24.9838 4.41077 26.0757 6.27596C26.6514 7.25952 26.8838 8.39184 26.8838 9.53153V15.5836M14.1162 15.5836C14.1162 15.5836 16.9743 9.28135 20.5 9.28135C24.0257 9.28135 26.8838 15.5836 26.8838 15.5836M11.6408 37.4486L14.4502 34.6751C15.9474 33.197 17.9667 32.3682 20.0706 32.3682H20.5H20.9294C23.0333 32.3682 25.0526 33.197 26.5498 34.6751L29.3592 37.4486M11.6408 37.4486H11.0546M11.6408 37.4486H17.243M6.69014 37.4486L5.9674 38.1621C5.59624 38.5285 5.38732 39.0283 5.38732 39.5499V39.5499C5.38732 40.6269 6.26043 41.5 7.33747 41.5H10.4073C11.4843 41.5 12.3574 40.6269 12.3574 39.5499V39.5499C12.3574 39.0283 12.1485 38.5285 11.7773 38.1621L11.0546 37.4486M17.243 37.4486H20.5H23.757M17.243 37.4486L16.5202 38.1621C16.1491 38.5285 15.9401 39.0283 15.9401 39.5499V39.5499C15.9401 40.6269 16.8132 41.5 17.8903 41.5H20.5H23.1097C24.1868 41.5 25.0599 40.6269 25.0599 39.5499V39.5499C25.0599 39.0283 24.8509 38.5285 24.4798 38.1621L23.757 37.4486M29.6197 24.9084V19.4994C29.6197 18.3597 29.846 17.2217 30.4513 16.2561C31.2978 14.9054 32.7103 13.1399 34.3099 13.1399C35.9094 13.1399 37.3219 14.9054 38.1684 16.2561C38.7737 17.2217 39 18.3597 39 19.4994V20.3921V32.6401V32.7584C39 35.3487 36.9002 37.4486 34.3099 37.4486V37.4486M29.6197 24.9084L26.8838 22.2074M29.6197 24.9084L30.1714 25.453C31.694 26.9562 32.5511 29.0066 32.5511 31.1461V37.4486M26.8838 22.2074V28.574V27M26.8838 22.2074V15.5836M32.5511 37.4486H34.3099M32.5511 37.4486H29.9454M29.3592 37.4486H29.9454M29.3592 37.4486H23.757M34.3099 37.4486L35.0326 38.1621C35.4038 38.5285 35.6127 39.0283 35.6127 39.5499V39.5499C35.6127 40.6269 34.7396 41.5 33.6625 41.5H30.5928C29.5157 41.5 28.6426 40.6269 28.6426 39.5499V39.5499C28.6426 39.0283 28.8515 38.5285 29.2227 38.1621L29.9454 37.4486" stroke="white" stroke-width="3" stroke-linejoin="round"/>
</svg>
